<?xml version="1.0" encoding="UTF-8"?>
<svg width="878px" height="450px" viewBox="0 0 878 450" version="1.1" xmlns="http://www.w3.org/2000/svg" xmlns:xlink="http://www.w3.org/1999/xlink">
    <!-- Generator: Sketch 55.2 (78181) - https://sketchapp.com -->
    <title>Page 1</title>
    <desc>Created with Sketch.</desc>
    <defs>
        <polygon id="path-1" points="0.550352632 0.237428571 16.9812105 0.237428571 16.9812105 17.6871429 0.550352632 17.6871429"></polygon>
        <polygon id="path-3" points="0 0 852 0 852 450 0 450"></polygon>
    </defs>
    <g id="Page-1" stroke="none" stroke-width="1" fill="none" fill-rule="evenodd">
        <g id="Desktop-HD" transform="translate(-294.000000, -271.000000)">
            <g id="Page-1" transform="translate(294.000000, 271.000000)">
                <g id="Group-8" transform="translate(564.000000, 251.000000)">
                    <path d="M11.7226928,57.6911817 C11.7226928,57.17419 11.6219349,56.8243067 11.4195274,56.6397911 C11.2180116,56.4552755 10.8649131,56.3630178 10.3611235,56.3630178 L8.35755684,56.3630178 L7.78956754,61.3083831 C7.61301828,63.0804288 7.26616139,64.5635162 6.74988854,65.7576453 C6.23272403,66.950904 5.52028533,67.96661 4.61257245,68.8030225 L4.65091395,68.9875381 L9.34016942,68.9875381 C10.2728489,68.9875381 10.9032546,68.8517625 11.2304949,68.5810816 C11.5577352,68.3104008 11.7226928,67.769039 11.7226928,66.9569965 L11.7226928,57.6911817 Z M18,75.8529098 L15.7690593,76 L15.1636202,72.9737706 C15.0378957,72.210468 14.7481052,71.6873838 14.2942488,71.4045179 C13.8403923,71.1216521 13.0967454,70.9806543 12.0633081,70.9806543 L5.89924209,70.9806543 C4.88987963,70.9806543 4.16495765,71.1216521 3.72447615,71.4045179 C3.28310299,71.6873838 2.98707089,72.222653 2.83548819,73.0111959 L2.26749889,75.8529098 L0,76 C0.200624164,73.7858132 0.301382078,71.582941 0.301382078,69.3931242 L0.566205974,69.097203 C1.95274186,68.5567116 3.01827909,67.6645963 3.76192599,66.4208569 C4.50557289,65.1797286 5.05394561,63.412905 5.40704414,61.1238675 L5.74765938,58.6886102 C5.82345074,58.2699687 5.86090058,57.9374926 5.86090058,57.6911817 C5.86090058,57.0767101 5.63976817,56.6580686 5.19928667,56.4369981 C4.75702185,56.2150572 3.89478377,56.0792816 2.60811413,56.0305416 L2.49487294,55.7720457 L2.75969683,54.1479606 L13.5372269,54.1479606 C15.2518948,54.1479606 16.550156,54.0983503 17.4329024,54 L17.2813197,55.9200063 C16.4993313,55.9939866 15.9893,56.1167069 15.7503344,56.2890375 C15.510477,56.461368 15.365136,56.7938442 15.3152029,57.2855956 C15.0628622,60.4606559 14.9362461,63.8689718 14.9362461,67.5105432 C14.9362461,68.0771452 15.0066875,68.4644539 15.1448952,68.6733394 C15.283103,68.8822249 15.5541685,68.9997231 15.9580918,69.024093 L17.4329024,69.097203 L17.6593848,69.3931242 C17.685243,71.6812913 17.7975925,73.8345532 18,75.8529098 L18,75.8529098 Z" id="Fill-1" fill="#000000"></path>
                    <path d="M38,69.6934965 L37.7289322,71.4704047 L33.4703377,71.3946208 L29.5996349,71.3946208 L29.7940371,69.6551587 C30.670216,69.5793749 31.2506845,69.4099757 31.5354427,69.1451781 C31.8192881,68.8803804 31.9616672,68.3953638 31.9616672,67.6892367 L32,57.7820595 C32,57.2524642 31.8968664,56.8940512 31.6905993,56.7050374 C31.4825068,56.5160236 31.1219957,56.4206251 30.606328,56.4206251 L28.5546091,56.4206251 L27.9741406,60.8829561 C27.6647399,63.3276537 27.2777609,65.2757442 26.8122908,66.724553 C26.3477335,68.1751449 25.735321,69.3092278 24.9750532,70.1276933 C24.2129601,70.9470504 23.2135686,71.570261 21.9741406,72 C20.9930027,71.1672693 20.3358686,70.0840061 20,68.7475358 L20.3486462,68.332062 C21.871007,68.0298182 23.0255552,67.2728714 23.8132035,66.0630046 C24.5990265,64.8531378 25.1612413,63.0004458 25.4971098,60.5040369 L25.845756,58.0094111 L25.8840888,57.5930457 C25.8840888,57.0135222 25.644965,56.6096389 25.1676301,56.383179 C24.6902951,56.1558274 23.8834804,56.0559711 22.7480986,56.0800436 L22.6321874,55.8535836 L22.8649224,54.1515677 L33.8582294,54.1515677 C35.1223,54.1515677 36.437481,54.1016395 37.8055978,54 L37.6896866,55.9293675 C36.9166413,56.0042597 36.3927594,56.1308633 36.1216915,56.3073951 C35.8515364,56.4848185 35.7018558,56.8236168 35.6772133,57.3282481 C35.418923,60.428253 35.2893216,63.9205508 35.2893216,67.8024667 C35.2893216,68.5335579 35.3668999,69.0185745 35.5220566,69.258408 C35.6772133,69.4982416 35.9993915,69.6177126 36.4904168,69.6177126 C36.902951,69.6177126 37.3675084,69.5927485 37.8831761,69.5419288 L38,69.6934965 Z" id="Fill-3" fill="#000000"></path>
                    <path d="M50.18119,62.0759778 L50.18119,56.5471302 C50.18119,56.0382137 50.0296445,55.6767571 49.72476,55.4600629 C49.4207722,55.2442679 48.92668,55.1354713 48.2415867,55.1354713 C46.0356578,55.1354713 44.9326933,56.1146411 44.9326933,58.0720815 C44.9326933,59.0629402 45.1864648,59.9090364 45.6940078,60.6076727 C46.2006541,61.3081073 46.9108556,61.7585793 47.8237156,61.9617863 L50.18119,62.0759778 Z M56,68.749438 L55.7336744,70.6565263 L51.55048,70.5800989 C49.9534234,70.5800989 48.6989134,70.6565263 47.7851567,70.8093811 L47.9752611,68.9022928 C48.8621163,68.749438 49.4530541,68.5345422 49.7444878,68.2540087 C50.0350248,67.9752735 50.18119,67.466357 50.18119,66.7290574 L50.18119,64.1350217 L47.6327144,64.1350217 L45.3129022,68.4823917 C44.47716,70.1601978 43.44952,71 42.2335689,71 L39.1138833,70.7329537 L39,70.5036715 L39.2286634,68.9787202 C40.0141893,68.8771167 40.6230615,68.6802038 41.0534867,68.3879814 C41.4848085,68.0948599 41.9672434,67.5670613 42.4998945,66.8045856 L44.02073,64.6691143 C44.4511552,64.0343174 44.8950311,63.6009291 45.3514611,63.3725461 C44.1095052,63.0173835 43.1329782,62.3942754 42.4236734,61.5041211 C41.7134719,60.6148659 41.3583711,59.5727559 41.3583711,58.3777911 C41.3583711,56.7503372 42.0111826,55.4537689 43.3168056,54.4880863 C44.6224285,53.5215046 46.3907585,53.0377641 48.6226923,53.0377641 C49.0029011,53.0377641 49.5983226,53.0647385 50.4098534,53.1141915 C51.1702711,53.166342 51.7405844,53.1906189 52.1207933,53.1906189 C53.0336533,53.1906189 54.28906,53.1276787 55.8861167,53 L55.7336744,54.9448524 C54.9221437,55.0725311 54.4092204,55.2118987 54.1940078,55.3647535 C53.9778985,55.5167091 53.8451841,55.8601828 53.7940711,56.3942754 C53.71785,57.0551476 53.6362485,58.6124682 53.5474734,61.0653379 C53.4578015,63.5191068 53.4138622,65.3812378 53.4138622,66.65263 C53.4138622,67.5167091 53.4838063,68.0696838 53.6236945,68.311554 C53.7617892,68.5525251 54.0980589,68.6739098 54.6316067,68.6739098 C54.7580441,68.6739098 55.1759152,68.6487337 55.8861167,68.5974824 L56,68.749438 Z" id="Fill-5" fill="#000000"></path>
                    <path d="M69.1515548,69.0815444 C70.0212439,69.0046252 70.6372024,68.8960334 70.9994305,68.7557689 C71.3616585,68.6145996 71.6025743,68.3585038 71.7247409,67.9874818 C71.8443445,67.6173646 71.9058549,67.0083455 71.9058549,66.164044 L71.9058549,55.3030516 C70.7696207,55.3292947 69.9665679,55.417978 69.4958424,55.5718164 C69.0251168,55.7247499 68.6927896,56.0324267 68.4988609,56.4930371 C68.3057865,56.9536474 68.1374872,57.7590368 67.9922542,58.911015 L66,59.0648535 C66.1922201,57.6314414 66.3135323,55.7129858 66.3613737,53.3067719 L66.6151042,53 L69.2241713,53.3067719 L77.7749744,53.3067719 L80.4199225,53 L80.673653,53.3067719 C80.7462695,55.1754562 80.8547671,57.0432356 81,58.911015 L79.0427725,59.0648535 C78.8736189,57.835956 78.6993393,56.9916545 78.5182253,56.5310442 C78.336257,56.0704339 78.0287049,55.763662 77.5938603,55.6098235 C77.1590158,55.4559851 76.3978244,55.3546327 75.3111402,55.3030516 C75.214603,56.454125 75.1360064,58.1626364 75.0762046,60.4267759 C75.0146942,62.6909155 74.9847933,64.8980443 74.9847933,67.0472576 C74.9847933,67.7123825 75.099271,68.1865668 75.3290808,68.4670957 C75.5588905,68.7494344 75.9390591,68.8896989 76.4704408,68.8896989 C77.1709762,68.8896989 77.6664768,68.8643608 77.9560884,68.8127796 L78.0654403,68.9657131 L77.8117098,70.9230808 L75.6374872,70.8850737 L73.3180317,70.8081544 C71.9656567,70.8081544 70.5039298,70.8724046 68.9345597,71 L69.1515548,69.0815444 Z" id="Fill-7" fill="#000000"></path>
                    <path d="M93.3940454,61.9403211 C93.4181391,61.9403211 93.7958926,61.7730991 94.5247246,61.438655 C95.2552777,61.1051197 95.6201239,60.2699182 95.6201239,58.9330506 C95.6201239,57.9833384 95.2673245,57.2762799 94.5617256,56.8136928 C93.8561267,56.3520145 92.7736347,56.1202666 91.3142497,56.1202666 C91.1189192,56.1202666 90.9855438,56.1529839 90.9124025,56.216601 C90.8392611,56.2802181 90.8031207,56.4156316 90.8031207,56.6210239 L90.5475562,61.7085732 L93.3940454,61.9403211 Z M90.3642726,68.1457134 C90.3642726,68.7373523 90.5836966,69.1608603 91.0216843,69.4180551 C91.4596719,69.6752499 92.2014112,69.8033929 93.2477627,69.8033929 C94.2450665,69.8033929 95.0238068,69.5525598 95.5839835,69.0518025 C96.1432997,68.5501363 96.4238183,67.8512572 96.4238183,66.9515298 C96.4238183,66.1799455 96.1493231,65.5383217 95.6020537,65.0239321 C95.0547843,64.5095426 94.2571134,64.1505604 93.2116223,63.9442593 L90.4744149,63.9833384 L90.3642726,68.1457134 Z M86.5325264,71.8654953 C85.6815053,71.955468 85.1703763,72 85,72 L85.1824231,70.0342321 C86.0093506,69.8797334 86.5755507,69.6488943 86.8801629,69.3408058 C87.1839146,69.0327174 87.3362207,68.5310512 87.3362207,67.837625 L87.3362207,57.5080279 C87.3362207,56.9681915 87.2691028,56.6019388 87.1357274,56.4092699 C87.000631,56.216601 86.7519504,56.1202666 86.3871042,56.1202666 C86.1194929,56.1202666 85.9000688,56.13299 85.730553,56.1593457 C85.5601767,56.1847925 85.4508949,56.1975159 85.4018472,56.1975159 L85.2555645,56.004847 L85.4749885,54.1163284 L89.1243116,54.1544986 C89.8049564,54.1544986 90.5415328,54.1345047 91.3323199,54.0963344 C92.1222464,54.0581642 92.724587,54.0263556 93.138481,54 C95.01176,54 96.4539353,54.3662527 97.4632859,55.098758 C98.4726365,55.8303544 98.9777421,56.8782187 98.9777421,58.2405332 C98.9777421,60.0127234 97.9434374,61.4268404 95.8756884,62.4801575 C97.1896512,62.788246 98.2050252,63.2890033 98.9235314,63.9833384 C99.6403167,64.6767646 100,65.5383217 100,66.5652832 C100,67.6195092 99.6945273,68.5574068 99.0870239,69.3798849 C98.4786599,70.2023629 97.6336622,70.8439867 96.5511703,71.3065738 C95.4678178,71.768252 94.2450665,72 92.8829165,72 C92.4939766,72 92.1282698,71.9872766 91.7883777,71.9618297 C91.4467646,71.9354741 91.1550597,71.9100273 90.9124025,71.8845804 C89.891005,71.7818843 89.1845457,71.7300818 88.7956058,71.7300818 C88.1390546,71.7300818 87.384408,71.7746138 86.5325264,71.8654953 L86.5325264,71.8654953 Z" id="Fill-9" fill="#000000"></path>
                    <path d="M113.818368,67.193634 C114.555986,66.1803714 114.924795,64.7630416 114.924795,62.9381079 C114.924795,60.6374889 114.490095,58.8258179 113.624354,57.5004421 C112.756783,56.1750663 111.587209,55.5128205 110.111057,55.5128205 C108.817022,55.5128205 107.808516,56.025641 107.084625,57.0495137 C106.359819,58.0751547 105.997416,59.5004421 105.997416,61.3244916 C105.997416,63.6251105 106.430286,65.4314766 107.297857,66.7435897 C108.163598,68.0565871 109.32219,68.7126437 110.771802,68.7126437 C112.064922,68.7126437 113.080749,68.2068966 113.818368,67.193634 M105.745747,69.9310345 C104.567937,69.2183908 103.649117,68.22458 102.989287,66.9504863 C102.329457,65.6746242 102,64.2122016 102,62.5632184 C102,60.7374005 102.394434,59.1007958 103.183301,57.6498674 C103.972168,56.1998232 105.066699,55.0627763 106.463232,54.2378426 C107.859765,53.4129089 109.425603,53 111.15983,53 C112.71194,53 114.082849,53.3510168 115.273471,54.0503979 C116.464093,54.7506631 117.382913,55.7374005 118.029931,57.0123784 C118.676034,58.2882405 119,59.7630416 119,61.4376658 C119,63.2625995 118.604651,64.9000884 117.815784,66.3501326 C117.026916,67.8001768 115.934216,68.9381079 114.535853,69.7621574 C113.13932,70.5870911 111.573482,71 109.839255,71 C108.287145,71 106.922642,70.6436782 105.745747,69.9310345" id="Fill-11" fill="#000000"></path>
                    <path d="M132.181418,59.2629071 C132.517684,59.238149 132.743999,59.1629906 132.861279,59.0374318 C132.977643,58.9127573 133.036284,58.6757872 133.036284,58.3247532 C133.036284,57.3751044 132.789811,56.6438571 132.297783,56.1310114 C131.805754,55.61905 131.093824,55.3626271 130.160161,55.3626271 C129.045996,55.3626271 128.106835,55.7322297 127.343595,56.4687822 C126.578523,57.2071032 126.105736,58.2380999 125.925234,59.5626566 L132.181418,59.2629071 Z M124.293385,68.6939628 C122.764156,67.1571941 122,65.112885 122,62.5628039 C122,60.8376971 122.393989,59.2443386 123.185633,57.7809599 C123.975444,56.3193496 125.050211,55.1557204 126.409932,54.2936091 C127.77057,53.4306135 129.253986,53 130.86018,53 C132.88052,53 134.408833,53.4942772 135.446033,54.481063 C136.480484,55.4696173 137,56.9250381 137,58.8499779 C137,59.625436 136.922118,60.2877143 136.766355,60.8376971 L136.261499,61.2497421 L125.847352,61.2497421 C125.847352,63.4010414 126.320139,65.0509898 127.265714,66.2004716 C128.210372,67.3499533 129.551768,67.9255784 131.287154,67.9255784 C132.737585,67.9255784 134.292468,67.5506705 135.949973,66.7999705 L136.183617,66.9122661 L136.727872,68.3385076 C135.795126,69.0122808 134.73227,69.6259272 133.54114,70.17591 C132.350009,70.7250086 131.325637,71 130.471688,71 C127.88052,71 125.821697,70.2316157 124.293385,68.6939628 L124.293385,68.6939628 Z" id="Fill-13" fill="#000000"></path>
                    <path d="M139.187126,69.0558525 C140.03537,68.9029825 140.596747,68.6736774 140.871257,68.3688365 C141.145766,68.0630964 141.283463,67.5424389 141.283463,66.8050657 L141.320535,56.6985562 C141.320535,56.1140531 141.258748,55.7264825 141.133409,55.5358445 C141.00807,55.3452066 140.7468,55.2489884 140.346952,55.2489884 C139.997415,55.2489884 139.711431,55.2624769 139.48635,55.2876555 L139.337179,55.0592496 L139.524305,53.2275066 C141.171364,53.2796623 142.792825,53.3039416 144.391337,53.3039416 C148.383645,53.3039416 151.179056,53.2032273 152.776685,53 L153,53.2661738 C152.72549,54.6393066 152.514533,56.7372234 152.364479,59.5590248 L150.118088,59.6732278 C150.193115,58.6822701 150.23107,57.918819 150.23107,57.384673 C150.23107,56.7749913 150.162222,56.3424589 150.024526,56.0888745 C149.886829,55.8343908 149.587605,55.6626368 149.125969,55.5736124 C148.663451,55.4845881 147.872581,55.4396263 146.748944,55.4396263 C146.150495,55.4396263 145.725049,55.4594095 145.476136,55.4971774 C145.226341,55.5358445 145.06393,55.6185742 144.988904,55.7453664 C144.914759,55.8730579 144.864447,56.0888745 144.839733,56.3937153 L144.502553,66.9957037 C144.502553,67.6575411 144.583759,68.1017635 144.74617,68.3301694 C144.907698,68.5594744 145.226341,68.6736774 145.701217,68.6736774 L146.823971,68.5972423 C147.173507,68.5477844 147.42242,68.5217065 147.572473,68.5217065 L147.759599,68.7887795 L147.497447,70.809362 C145.725049,70.732927 144.327785,70.6951591 143.304773,70.6951591 C142.032848,70.6951591 140.596747,70.7967727 139,71 L139.187126,69.0558525 Z" id="Fill-15" fill="#000000"></path>
                    <path d="M166.818368,67.193634 C167.555986,66.1803714 167.924795,64.7630416 167.924795,62.9381079 C167.924795,60.6374889 167.490095,58.8258179 166.624354,57.5004421 C165.756783,56.1750663 164.587209,55.5128205 163.111057,55.5128205 C161.817022,55.5128205 160.808516,56.025641 160.084625,57.0495137 C159.359819,58.0751547 158.997416,59.5004421 158.997416,61.3244916 C158.997416,63.6251105 159.430286,65.4314766 160.297857,66.7435897 C161.163598,68.0565871 162.32219,68.7126437 163.771802,68.7126437 C165.064922,68.7126437 166.080749,68.2068966 166.818368,67.193634 M158.745747,69.9310345 C157.567937,69.2183908 156.649117,68.22458 155.989287,66.9504863 C155.329457,65.6746242 155,64.2122016 155,62.5632184 C155,60.7374005 155.394434,59.1007958 156.183301,57.6498674 C156.972168,56.1998232 158.066699,55.0627763 159.463232,54.2378426 C160.859765,53.4129089 162.425603,53 164.15983,53 C165.71194,53 167.082849,53.3510168 168.273471,54.0503979 C169.464093,54.7506631 170.382913,55.7374005 171.029931,57.0123784 C171.676034,58.2882405 172,59.7630416 172,61.4376658 C172,63.2625995 171.604651,64.9000884 170.815784,66.3501326 C170.026916,67.8001768 168.934216,68.9381079 167.535853,69.7621574 C166.13932,70.5870911 164.573482,71 162.839255,71 C161.287145,71 159.922642,70.6436782 158.745747,69.9310345" id="Fill-17" fill="#000000"></path>
                    <path d="M182.18325,69.0724996 C183.013926,68.893472 183.564541,68.6553744 183.833365,68.3600242 C184.10219,68.0646741 184.23617,67.5312263 184.23617,66.7596809 L184.273338,56.6232645 C184.273338,56.0589186 184.199866,55.6790529 184.05292,55.4863937 C183.906838,55.2937345 183.638014,55.197405 183.246446,55.197405 L182.256723,55.197405 L182.109777,55.0047458 L182.330196,53.1544908 L186.032367,53.1926592 L196.187188,53.1926592 C196.774107,53.1926592 198.008452,53.1290453 199.890223,53 L199.743277,55.0429141 C199.010277,55.1465139 198.527084,55.2873732 198.296293,55.4673095 C198.062908,55.6472459 197.934979,55.9934872 197.910776,56.5078508 C197.690357,59.7203514 197.58058,63.2145706 197.58058,66.9914172 C197.58058,67.7366083 197.654053,68.2382491 197.800134,68.4945221 C197.94708,68.7507952 198.240108,68.8798405 198.680945,68.8798405 C199.120918,68.8798405 199.511621,68.8543949 199.853054,68.802595 L200,68.9570859 L199.81675,70.8455092 L195.820688,70.7682637 L192.228294,70.7682637 L192.411544,68.8798405 C193.19295,68.7780583 193.725413,68.5908517 194.006339,68.3209471 C194.287265,68.0510426 194.42816,67.5693947 194.42816,66.8760034 L194.464464,56.8931691 C194.464464,56.3533599 194.354687,55.9880345 194.134268,55.7953754 C193.914714,55.6027162 193.547349,55.5054779 193.034768,55.5054779 L189.808874,55.5054779 C189.075874,55.5054779 188.556377,55.5963548 188.251249,55.7753824 C187.945255,55.9553188 187.780158,56.3024688 187.755955,56.8168324 C187.48713,61.6723885 187.352286,65.051194 187.352286,66.9523401 C187.352286,67.6984399 187.431809,68.199172 187.590857,68.455445 C187.74904,68.7126268 188.048982,68.8416721 188.488955,68.8416721 C188.977334,68.8416721 189.393104,68.8162266 189.735401,68.7644267 L189.845179,68.9180088 L189.588456,70.8455092 L185.665866,70.7682637 C185.030542,70.7682637 183.808298,70.8455092 182,71 L182.18325,69.0724996 Z" id="Fill-19" fill="#000000"></path>
                    <path d="M216.895536,67.207394 C217.739795,66.1496844 218.161472,64.6898106 218.161472,62.8286745 C218.161472,61.5798016 217.969636,60.4571686 217.585964,59.4625789 C217.202292,58.4688909 216.66479,57.6907124 215.973457,57.1298467 C215.283933,56.5689811 214.515685,56.28945 213.671426,56.28945 C213.211743,56.28945 212.667002,56.4292155 212.04082,56.7087466 C211.412829,56.9900812 210.806555,57.3597836 210.217474,57.8187556 C210.038307,61.4391344 209.948723,64.8809739 209.948723,68.1442741 C210.383973,68.3228133 210.915142,68.4752029 211.541323,68.6032462 C212.167505,68.7303877 212.775588,68.7944094 213.364669,68.7944094 C214.87402,68.7944094 216.050372,68.2651037 216.895536,67.207394 L216.895536,67.207394 Z M204.461492,78.1253381 C205.254173,78.0234445 205.765433,77.8133454 205.996179,77.4941389 C206.226021,77.1758341 206.341846,76.5193868 206.341846,75.5256988 C206.418761,72.8476105 206.456767,70.7953111 206.456767,69.367899 L206.456767,58.238954 C206.456767,57.3724076 206.321938,56.77367 206.054092,56.4418395 C205.785341,56.110009 205.304846,55.9449955 204.614418,55.9449955 L204.153831,55.9449955 L204,55.7538323 L204.153831,54.1857529 C205.407098,54.0072137 206.648602,53.7835888 207.876533,53.51578 C209.105369,53.2488729 209.898049,53.0757439 210.25548,53 L210.563141,53.3435528 C210.537804,53.4724977 210.472652,53.7646528 210.371305,54.2236249 C210.269053,54.6816952 210.192138,55.1280433 210.140559,55.5617674 L210.29439,55.7917042 C212.544842,54.0324617 213.940177,53.1523895 214.477679,53.1523895 C215.961693,53.1523895 217.272874,53.496844 218.411221,54.1857529 C219.549568,54.8737601 220.431832,55.8367899 221.059823,57.0730388 C221.686004,58.3092876 222,59.7439134 222,61.3751127 C222,63.2623986 221.563845,64.9639315 220.694249,66.4797115 C219.824653,67.9972949 218.641967,69.1893598 217.14438,70.0559062 C215.647698,70.9233544 213.978182,71.3570784 212.135834,71.3570784 C211.675246,71.3570784 211.220993,71.3435528 210.773979,71.3183048 C210.326061,71.2921551 210.025638,71.2669071 209.871808,71.2416592 L209.871808,74.9900812 C209.871808,76.1109107 209.980394,76.8692516 210.198472,77.2651037 C210.415644,77.6600541 210.856324,77.858431 211.523225,77.858431 C211.778403,77.858431 212.033581,77.8449053 212.289664,77.8196573 C212.544842,77.7935077 212.763825,77.7817854 212.942992,77.7817854 L213.019003,77.9341749 L212.674241,79.7700631 L208.567866,79.7321912 C207.645787,79.7321912 206.757189,79.7700631 205.900261,79.8467087 C205.042429,79.9233544 204.485924,79.9738503 204.230746,80 L204.461492,78.1253381 Z" id="Fill-21" fill="#000000"></path>
                    <path d="M235.818368,67.193634 C236.555986,66.1803714 236.924795,64.7630416 236.924795,62.9381079 C236.924795,60.6374889 236.490095,58.8258179 235.624354,57.5004421 C234.756783,56.1750663 233.587209,55.5128205 232.111057,55.5128205 C230.817022,55.5128205 229.808516,56.025641 229.084625,57.0495137 C228.359819,58.0751547 227.997416,59.5004421 227.997416,61.3244916 C227.997416,63.6251105 228.430286,65.4314766 229.297857,66.7435897 C230.163598,68.0565871 231.32219,68.7126437 232.771802,68.7126437 C234.064922,68.7126437 235.080749,68.2068966 235.818368,67.193634 M227.745747,69.9310345 C226.567937,69.2183908 225.649117,68.22458 224.989287,66.9504863 C224.329457,65.6746242 224,64.2122016 224,62.5632184 C224,60.7374005 224.394434,59.1007958 225.183301,57.6498674 C225.972168,56.1998232 227.066699,55.0627763 228.463232,54.2378426 C229.859765,53.4129089 231.425603,53 233.15983,53 C234.71194,53 236.082849,53.3510168 237.273471,54.0503979 C238.464093,54.7506631 239.382913,55.7374005 240.029931,57.0123784 C240.676034,58.2882405 241,59.7630416 241,61.4376658 C241,63.2625995 240.604651,64.9000884 239.815784,66.3501326 C239.026916,67.8001768 237.934216,68.9381079 236.535853,69.7621574 C235.13932,70.5870911 233.573482,71 231.839255,71 C230.287145,71 228.922642,70.6436782 227.745747,69.9310345" id="Fill-23" fill="#000000"></path>
                    <path d="M253.181418,59.2629071 C253.517684,59.238149 253.743999,59.1629906 253.861279,59.0374318 C253.977643,58.9127573 254.036284,58.6757872 254.036284,58.3247532 C254.036284,57.3751044 253.789811,56.6438571 253.297783,56.1310114 C252.805754,55.61905 252.093824,55.3626271 251.160161,55.3626271 C250.045996,55.3626271 249.106835,55.7322297 248.343595,56.4687822 C247.578523,57.2071032 247.105736,58.2380999 246.925234,59.5626566 L253.181418,59.2629071 Z M245.293385,68.6939628 C243.764156,67.1571941 243,65.112885 243,62.5628039 C243,60.8376971 243.393989,59.2443386 244.185633,57.7809599 C244.975444,56.3193496 246.050211,55.1557204 247.409932,54.2936091 C248.77057,53.4306135 250.253986,53 251.86018,53 C253.88052,53 255.408833,53.4942772 256.446033,54.481063 C257.480484,55.4696173 258,56.9250381 258,58.8499779 C258,59.625436 257.922118,60.2877143 257.766355,60.8376971 L257.261499,61.2497421 L246.847352,61.2497421 C246.847352,63.4010414 247.320139,65.0509898 248.265714,66.2004716 C249.210372,67.3499533 250.551768,67.9255784 252.287154,67.9255784 C253.737585,67.9255784 255.292468,67.5506705 256.949973,66.7999705 L257.183617,66.9122661 L257.727872,68.3385076 C256.795126,69.0122808 255.73227,69.6259272 254.54114,70.17591 C253.350009,70.7250086 252.325637,71 251.471688,71 C248.88052,71 246.821697,70.2316157 245.293385,68.6939628 L245.293385,68.6939628 Z" id="Fill-25" fill="#000000"></path>
                    <path d="M279,69.3950939 L278.808154,70.6945181 L275.661706,71 C274.458147,71 273.370419,70.1601502 272.398522,68.4777472 L269.175155,62.8213767 L266.719169,62.8213767 C266.666683,64.8092616 266.64225,66.1600501 266.64225,66.8728411 C266.64225,67.5865332 266.730934,68.070438 266.911015,68.3254568 C267.089287,68.5804756 267.422302,68.7075344 267.90825,68.7075344 C268.163441,68.7075344 268.387864,68.6949186 268.579709,68.668786 C268.771555,68.6444556 268.90639,68.6309387 268.983309,68.6309387 L269.098235,68.783229 L268.829471,70.6945181 C268.599618,70.6945181 268.163441,70.6819024 267.524559,70.6557697 C266.884772,70.6305382 266.258559,70.6179224 265.64411,70.6179224 C264.850485,70.6179224 263.961842,70.6440551 262.976371,70.6945181 C261.9909,70.7458824 261.333015,70.7963454 261,70.8477096 L261.191846,68.9364205 C262.061485,68.783229 262.644261,68.5543429 262.938364,68.2488611 C263.231562,67.9433792 263.379066,67.4081101 263.379066,66.6430538 L263.379066,56.5540426 C263.379066,55.9683104 263.315721,55.5799249 263.18722,55.387985 C263.059625,55.1969462 262.778191,55.1023279 262.343824,55.1023279 L261.421698,55.1401752 L261.306772,54.910388 L261.498617,53.1531915 L264.953647,53.1910388 C265.51561,53.1910388 266.25132,53.1658073 267.159871,53.1144431 C268.068423,53.06398 268.662963,53.0252315 268.945302,53 L268.791463,54.9869837 C268.048514,55.1149437 267.568901,55.2870588 267.351717,55.5033292 C267.134533,55.7195995 267.012367,56.2098123 266.987934,56.9748686 L266.834096,60.5289111 L269.443014,60.7199499 L271.708059,56.7450814 C272.55236,55.3185982 273.370419,54.3444806 274.164044,53.8218273 C274.956764,53.3000751 276.057162,53.0378473 277.465236,53.0378473 C277.874265,53.5722153 278.13036,54.0633292 278.232618,54.5084856 C278.334875,54.9554443 278.385551,55.6240801 278.385551,56.5161952 L278.00186,56.8982728 C277.158464,56.5918899 276.467096,56.4395995 275.929566,56.4395995 C275.366699,56.4395995 274.887085,56.5990989 274.490724,56.9171965 C274.093459,57.2361952 273.664522,57.7516395 273.204816,58.4644305 L271.784073,60.7965457 L275.392942,66.7962453 C276.3395,68.3506884 277.477,69.1274593 278.808154,69.1274593 L279,69.3950939 Z" id="Fill-27" fill="#000000"></path>
                    <path d="M283.151555,69.0815444 C284.021244,69.0046252 284.637202,68.8960334 284.99943,68.7557689 C285.361659,68.6145996 285.602574,68.3585038 285.724741,67.9874818 C285.844344,67.6173646 285.905855,67.0083455 285.905855,66.164044 L285.905855,55.3030516 C284.769621,55.3292947 283.966568,55.417978 283.495842,55.5718164 C283.025117,55.7247499 282.69279,56.0324267 282.498861,56.4930371 C282.305787,56.9536474 282.137487,57.7590368 281.992254,58.911015 L280,59.0648535 C280.19222,57.6314414 280.313532,55.7129858 280.361374,53.3067719 L280.615104,53 L283.224171,53.3067719 L291.774974,53.3067719 L294.419923,53 L294.673653,53.3067719 C294.74627,55.1754562 294.854767,57.0432356 295,58.911015 L293.042773,59.0648535 C292.873619,57.835956 292.699339,56.9916545 292.518225,56.5310442 C292.336257,56.0704339 292.028705,55.763662 291.59386,55.6098235 C291.159016,55.4559851 290.397824,55.3546327 289.31114,55.3030516 C289.214603,56.454125 289.136006,58.1626364 289.076205,60.4267759 C289.014694,62.6909155 288.984793,64.8980443 288.984793,67.0472576 C288.984793,67.7123825 289.099271,68.1865668 289.329081,68.4670957 C289.558891,68.7494344 289.939059,68.8896989 290.470441,68.8896989 C291.170976,68.8896989 291.666477,68.8643608 291.956088,68.8127796 L292.06544,68.9657131 L291.81171,70.9230808 L289.637487,70.8850737 L287.318032,70.8081544 C285.965657,70.8081544 284.50393,70.8724046 282.93456,71 L283.151555,69.0815444 Z" id="Fill-29" fill="#000000"></path>
                    <g id="Group-33" transform="translate(297.000000, 53.000000)">
                        <mask id="mask-2" fill="white">
                            <use xlink:href="#path-1"></use>
                        </mask>
                        <g id="Clip-32"></g>
                        <path d="M8.06345789,14.2157143 C8.64503684,13.9371429 9.17651053,13.5917143 9.65698421,13.1794286 L9.80908947,9.61714286 L5.17972105,10.8891429 C4.49703684,11.1068571 4.15524737,11.568 4.15524737,12.27 C4.15524737,12.9488571 4.37624737,13.5128571 4.81914211,13.9611429 C5.26114211,14.4102857 5.83735263,14.6331429 6.54598421,14.6331429 C6.97545789,14.6331429 7.48187895,14.4942857 8.06345789,14.2157143 M9.96119474,14.8148571 L9.73303684,14.742 C8.84724737,15.5905714 8.03214211,16.2694286 7.28593158,16.7777143 C6.53972105,17.2868571 5.96351053,17.5414286 5.55908947,17.5414286 C4.11766842,17.5414286 2.9223,17.082 1.97298421,16.1605714 C1.02456316,15.2391429 0.550352632,14.0888571 0.550352632,12.7062857 C0.550352632,11.9554286 0.739142105,11.3134286 1.11940526,10.7802857 C1.49877368,10.2471429 2.00519474,9.89571429 2.63777368,9.726 L9.88514211,7.94485714 L9.92272105,6.672 C9.92272105,5.53285714 9.63193158,4.64914286 9.05035263,4.01914286 C8.46787895,3.38828571 7.65903684,3.07371429 6.62203684,3.07371429 C5.93845789,3.07371429 5.20477368,3.23142857 4.42098421,3.546 C3.6363,3.86142857 2.86414211,4.29771429 2.1063,4.85485714 L1.87814211,4.70914286 L1.30908947,2.89114286 C2.4973,2.21314286 3.74366842,1.60114286 5.0473,1.05514286 C6.34914211,0.510857143 7.29219474,0.237428571 7.87377368,0.237428571 C9.72051053,0.237428571 11.1377737,0.667714286 12.1237737,1.52828571 C13.1106684,2.38885714 13.6036684,3.558 13.6036684,5.03657143 C13.6036684,5.32714286 13.5025632,6.41742857 13.3003526,8.30742857 C13.0220895,10.8771429 12.8834053,12.4405714 12.8834053,12.9977143 C12.8834053,13.4828571 13.0086684,13.8702857 13.2627737,14.1608571 C13.5150895,14.4514286 13.8819316,14.5971429 14.3624053,14.5971429 C14.7176158,14.5971429 15.0898263,14.5131429 15.4826158,14.3425714 C15.8736158,14.1728571 16.1840895,13.9911429 16.4122474,13.7974286 L16.9813,14.4874286 C16.5768789,15.1662857 16.0579316,15.8211429 15.4262474,16.4511429 C14.7927737,17.082 14.1593,17.4925714 13.5276158,17.6871429 C11.3525105,17.6871429 10.1634053,16.7305714 9.96119474,14.8148571" id="Fill-31" fill="#000000" mask="url(#mask-2)"></path>
                    </g>
                    <path d="M2.99262111,29.7759502 C4.24934232,29.6797088 5.19345525,29.4697277 5.822265,29.1468818 C6.45107475,28.8249108 6.88136028,28.2938336 7.11312159,27.5510254 C7.3448829,26.8099671 7.46076355,25.7136908 7.46076355,24.2630713 L7.46076355,13.2381886 C7.46076355,12.1095401 7.25325634,11.3684818 6.8400385,11.0132638 C6.42592236,10.6589207 5.73962143,10.4813117 4.77933911,10.4813117 C4.34905358,10.4813117 3.84420918,10.5215581 3.2657042,10.6020508 C2.68540263,10.6834185 2.31350658,10.7394135 2.14911774,10.7709106 L2,10.6265486 L2.19762592,8.59498145 C2.52820019,8.56348429 3.19833173,8.48299153 4.20891883,8.35350318 C5.21860764,8.22488976 6.36843118,8.06390425 7.65928778,7.87054665 C10.3074751,7.45145937 11.796856,7.20123189 12.1283285,7.11986421 C12.4580045,7.0411213 12.6403593,7 12.6735964,7 L12.9718319,7.82155106 C12.3088868,8.37012669 11.8543471,8.90907818 11.6064164,9.44190523 C11.3584857,9.97298243 11.2012833,10.788409 11.1348091,11.8838105 C10.9362849,17.0090992 10.8365736,21.7170505 10.8365736,26.0032897 C10.8365736,27.2937986 11.0018608,28.1634703 11.3333333,28.6149297 C11.6639076,29.066389 12.3088868,29.2921187 13.2691691,29.2921187 C13.86564,29.2921187 14.4118062,29.2763701 14.9085659,29.243998 C15.4044273,29.211626 15.7358999,29.1792539 15.901187,29.1468818 L16,29.3402394 L15.5535451,31.5651641 C15.0900225,31.532792 14.213282,31.50042 12.9224254,31.4689228 C11.6315688,31.4356758 10.3074751,31.4199272 8.95014437,31.4199272 C7.89015079,31.4199272 6.68283606,31.50042 5.32640359,31.6614055 C3.96817453,31.822391 3.09143407,31.9352558 2.69438563,32 L2.99262111,29.7759502 Z" id="Fill-34" fill="#000000"></path>
                    <path d="M35.0657218,26.0277875 C36.5586349,24.4975502 37.3042204,22.5071044 37.3042204,20.0564499 C37.3042204,18.2829845 36.9349117,16.7037517 36.1971653,15.3170015 C35.4585478,13.9320011 34.4394647,12.8505984 33.1399161,12.0771681 C31.8403674,11.3037377 30.3552934,10.9170225 28.687307,10.9170225 C26.2798321,10.9170225 24.3461873,11.6825786 22.8863726,13.2136908 C21.4256869,14.744803 20.6957796,16.7851193 20.6957796,19.3311402 C20.6957796,21.0713586 21.0572492,22.6269686 21.7784464,23.9970953 C22.5005147,25.3680969 23.5039196,26.4320011 24.78779,27.188808 C26.0707895,27.9464898 27.5471534,28.3253307 29.2168818,28.3253307 C31.6234856,28.3253307 33.5736796,27.5597746 35.0657218,26.0277875 M22.9342782,30.5012599 C21.3769103,29.5029747 20.1670758,28.099601 19.2995487,26.2946385 C18.4328925,24.488801 18,22.4091132 18,20.0564499 C18,17.5742983 18.5051865,15.3414993 19.5155594,13.3589277 C20.5276744,11.3763561 21.9230343,9.82162105 23.7042521,8.69297263 C25.48547,7.56344929 27.4835696,7 29.698551,7 C31.6879405,7 33.4691583,7.49083083 35.0422045,8.47511724 C36.6135086,9.45852873 37.8337952,10.8365297 38.7004513,12.6091202 C39.5671075,14.3817106 40,16.4141527 40,18.7020718 C40,21.2165955 39.4948135,23.4896409 38.4835696,25.5203332 C37.4731966,27.5510254 36.0839338,29.1398824 34.3201362,30.2834045 C32.5537256,31.4278015 30.5643361,32 28.3502257,32 C26.2963813,32 24.4899042,31.50042 22.9342782,30.5012599" id="Fill-36" fill="#000000"></path>
                    <path d="M62.0657218,26.0277875 C63.5586349,24.4975502 64.3042204,22.5071044 64.3042204,20.0564499 C64.3042204,18.2829845 63.9349117,16.7037517 63.1971653,15.3170015 C62.4585478,13.9320011 61.4394647,12.8505984 60.1399161,12.0771681 C58.8403674,11.3037377 57.3552934,10.9170225 55.687307,10.9170225 C53.2798321,10.9170225 51.3461873,11.6825786 49.8863726,13.2136908 C48.4256869,14.744803 47.6957796,16.7851193 47.6957796,19.3311402 C47.6957796,21.0713586 48.0572492,22.6269686 48.7784464,23.9970953 C49.5005147,25.3680969 50.5039196,26.4320011 51.78779,27.188808 C53.0707895,27.9464898 54.5471534,28.3253307 56.2168818,28.3253307 C58.6234856,28.3253307 60.5736796,27.5597746 62.0657218,26.0277875 M49.9342782,30.5012599 C48.3769103,29.5029747 47.1670758,28.099601 46.2995487,26.2946385 C45.4328925,24.488801 45,22.4091132 45,20.0564499 C45,17.5742983 45.5051865,15.3414993 46.5155594,13.3589277 C47.5276744,11.3763561 48.9230343,9.82162105 50.7042521,8.69297263 C52.48547,7.56344929 54.4835696,7 56.698551,7 C58.6879405,7 60.4691583,7.49083083 62.0422045,8.47511724 C63.6135086,9.45852873 64.8337952,10.8365297 65.7004513,12.6091202 C66.5671075,14.3817106 67,16.4141527 67,18.7020718 C67,21.2165955 66.4948135,23.4896409 65.4835696,25.5203332 C64.4731966,27.5510254 63.0839338,29.1398824 61.3201362,30.2834045 C59.5537256,31.4278015 57.5643361,32 55.3502257,32 C53.2963813,32 51.4899042,31.50042 49.9342782,30.5012599" id="Fill-38" fill="#000000"></path>
                    <path d="M107,29.670046 L106.647078,31.7515792 C106.310571,31.7515792 105.664004,31.7354363 104.706464,31.7031506 C103.749836,31.6690712 102.732108,31.6529283 101.657839,31.6529283 L97.0206099,31.7031506 L97.3726198,29.670046 C98.5143722,29.6377603 99.2794922,29.3902363 99.666156,28.9265772 C100.05282,28.463815 100.246152,27.5221477 100.246152,26.1015753 L100.296308,15.9396397 C95.760305,20.4345317 91.8453345,24.4989472 88.552309,28.133783 C88.5860509,28.696093 88.7374334,29.0844186 89.0064566,29.29876 C89.2745677,29.5139983 89.6940614,29.6207206 90.2658496,29.6207206 C90.6023565,29.6207206 90.9215364,29.6045777 91.2233895,29.5713951 C91.5261545,29.5391094 91.7276939,29.5211729 91.8289195,29.5211729 L91.9301452,29.670046 L91.5772233,31.7515792 C91.3410301,31.7515792 90.8704676,31.7354363 90.1655359,31.7031506 C89.4606041,31.6690712 88.7374334,31.6529283 87.9978478,31.6529283 C86.8889254,31.6529283 85.6204129,31.6941823 84.1923105,31.7766903 C82.7642081,31.8583015 82.0328299,31.932738 82,32 L82.2516962,29.91757 C83.4281024,29.7202683 84.2096374,29.422522 84.5963012,29.0252281 C84.981141,28.6297278 85.1753848,27.9346877 85.1753848,26.9436949 L85.2255417,13.16486 C85.2255417,12.4043516 85.1325235,11.9003353 84.9483111,11.6519145 C84.7631867,11.4043905 84.3856424,11.2806286 83.8147662,11.2806286 L82.5544612,11.329954 L82.4541475,11.1317554 L82.7058437,9.19909538 L87.0904647,9.24842081 C87.7963085,9.24842081 88.6535347,9.21523824 89.6612315,9.14887312 C90.6698402,9.08340482 91.3255271,9.03318256 91.6273802,9 L91.4759977,11.0815332 C90.7364121,11.1819777 90.2074852,11.3138111 89.8883052,11.4788271 C89.5691253,11.6438431 89.350259,11.9003353 89.2335303,12.2465102 C89.1149777,12.5944787 89.0392865,13.16486 89.0064566,13.9567574 L88.9562997,15.3943695 L88.552309,24.8128363 C92.4836945,21.0452702 96.397753,17.0140373 100.296308,12.7182407 C100.262567,12.1568276 100.136718,11.7765733 99.9178522,11.577478 C99.6989859,11.3792794 99.3214416,11.2806286 98.7843073,11.2806286 L97.5750711,11.329954 L97.4738455,11.1317554 L97.7255417,9.19909538 L101.809222,9.24842081 C102.580725,9.24842081 103.504523,9.21523824 104.580616,9.14887312 C105.655796,9.08340482 106.36164,9.03318256 106.697235,9 L106.546764,11.0815332 C105.571898,11.2151603 104.933538,11.4043905 104.630773,11.6519145 C104.328008,11.9003353 104.16021,12.3541293 104.12738,13.0159869 L104.026155,15.3450441 C103.756219,21.0291273 103.623076,24.994892 103.623076,27.2414412 C103.623076,28.1669656 103.740716,28.7947438 103.975998,29.1256726 C104.210367,29.4557046 104.6481,29.6207206 105.286459,29.6207206 C105.655796,29.6207206 105.992303,29.6045777 106.295068,29.5713951 C106.596921,29.5391094 106.798461,29.50503 106.899686,29.4718475 L107,29.670046 Z" id="Fill-40" fill="#000000"></path>
                    <path d="M124.499784,13.3111342 C124.499784,12.6579052 124.357758,12.2005563 124.074612,11.9390874 C123.791465,11.6776185 123.315634,11.5473272 122.649833,11.5473272 L119.399528,11.5473272 L118.750914,18.3561539 C118.516618,20.8387787 118.040787,22.9296433 117.325231,24.6269752 C116.607866,26.3260796 115.600118,27.7619426 114.300177,28.9381094 L114.349931,29.1827379 L121.050462,29.1827379 C122.449912,29.1827379 123.375339,28.9797671 123.824936,28.5702803 C124.274533,28.1625661 124.499784,27.3382744 124.499784,26.0965188 L124.499784,13.3111342 Z M132,37.8528684 L129.699548,38 L128.949617,33.935267 C128.782262,32.9549803 128.406844,32.2760476 127.825172,31.9020141 C127.240787,31.526208 126.266509,31.338305 124.899626,31.338305 L116.049715,31.338305 C114.717207,31.338305 113.775497,31.5173447 113.225487,31.8771967 C112.675477,32.2361625 112.300964,32.9221859 112.100138,33.935267 L111.350206,37.8528684 L109,38 C109.266863,35.1256151 109.400747,32.3177053 109.400747,29.5753843 L109.749931,29.2314863 C111.583599,28.7094349 113.041849,27.5421315 114.12468,25.7295761 C115.208417,23.9170207 115.96649,21.4104649 116.399803,18.2090223 L116.850305,14.7319295 C116.916342,14.0778141 116.949813,13.6700999 116.949813,13.5070143 C116.949813,12.9193741 116.832212,12.4779792 116.600629,12.1846022 C116.366332,11.8894526 115.958348,11.6776185 115.374867,11.5473272 C114.792291,11.417036 113.900334,11.3018124 112.699902,11.2043155 L112.600393,11.0075491 L112.949577,9.19499373 L126.499902,9.19499373 C128.765978,9.19499373 130.349971,9.13029127 131.250069,9 L131.099902,11.1068187 C130.032448,11.2043155 129.325034,11.3682875 128.974041,11.5960757 C128.624857,11.8247501 128.41589,12.2652587 128.349853,12.9193741 C128.182498,14.9446499 128.049518,17.3120511 127.949105,20.0215777 C127.849597,22.7328769 127.798938,25.1339589 127.798938,27.2230508 C127.798938,27.9418686 127.891209,28.432012 128.074848,28.6925945 C128.257581,28.9540634 128.583245,29.101195 129.049125,29.1339894 L131.250069,29.2314863 L131.549499,29.5753843 C131.582065,32.7422598 131.732232,35.5023075 132,37.8528684 L132,37.8528684 Z" id="Fill-42" fill="#000000"></path>
                    <path d="M147.648411,17.0678095 C148.135159,17.0012163 148.459071,16.883538 148.621027,16.7147744 C148.783863,16.5469231 148.864841,16.2112205 148.864841,15.7067543 C148.864841,14.3621194 148.515403,13.3367669 147.818289,12.6306967 C147.121174,11.9246266 146.123912,11.5725037 144.827384,11.5725037 C143.302885,11.5725037 141.996675,12.1098103 140.911394,13.1853358 C139.823472,14.2617735 139.135159,15.7067543 138.842934,17.5211905 L147.648411,17.0678095 Z M139.864841,31.6134023 C138.308655,30.6893078 137.107188,29.3784256 136.264841,27.6807556 C135.420733,25.9830856 135,24.042761 135,21.8570451 C135,19.6056483 135.49379,17.48835 136.48313,15.5042381 C137.472469,13.5210384 138.794523,11.941959 140.448411,10.7651754 C142.102298,9.58930404 143.869731,9 145.751589,9 C148.118435,9 149.918435,9.62305675 151.150709,10.8655213 C152.383863,12.1098103 153,13.9251587 153,16.3115664 C153,17.286746 152.903178,18.1104945 152.707775,18.7818997 L152.075795,19.3867118 L138.648411,19.3867118 C138.615844,22.6470409 139.239902,25.1593371 140.521467,26.9245125 C141.802152,28.6887757 143.59423,29.5718195 145.897702,29.5718195 C147.713545,29.5718195 149.691345,29.0509331 151.832861,28.0082481 L152.124205,28.1095063 L152.659364,29.5718195 C151.491345,30.445741 150.202738,31.2348246 148.791785,31.941807 C147.380831,32.6469649 146.189046,33 145.21643,33 C143.205183,33 141.421907,32.5374967 139.864841,31.6134023 L139.864841,31.6134023 Z" id="Fill-44" fill="#000000"></path>
                    <path d="M164.736923,4.41214573 C163.54319,3.59862254 162.778982,2.42704091 162.443387,0.898302769 L165.165536,0 L165.770154,0.249829184 C165.870468,2.77608024 167.130773,4.03875482 169.550157,4.03875482 C172.003283,4.03875482 173.280003,2.77608024 173.381229,0.249829184 L173.985847,0 L176.707084,0.898302769 C176.371489,2.36120145 175.573539,3.51474487 174.313234,4.36254065 C173.052929,5.21033644 171.44791,5.63333242 169.5,5.63333242 C167.516524,5.63333242 165.929744,5.22657083 164.736923,4.41214573 L164.736923,4.41214573 Z M182,30.6577387 L181.647078,32.7510727 C181.310571,32.7510727 180.664004,32.7339364 179.706464,32.7014677 C178.748924,32.668097 177.732108,32.6518626 176.656927,32.6518626 L172.019698,32.7014677 L172.37262,30.6577387 C173.514372,30.624368 174.279492,30.3754407 174.666156,29.9100549 C175.05282,29.4446692 175.24524,28.4976632 175.24524,27.0681352 L175.296308,16.8494903 C170.759393,21.3698653 166.845335,25.4573232 163.552309,29.1127661 C163.585139,29.678264 163.736521,30.0678893 164.005545,30.2843478 C164.274568,30.5008063 164.694061,30.6081336 165.26585,30.6081336 C165.601445,30.6081336 165.921536,30.5909973 166.22339,30.5576266 C166.526155,30.5251578 166.727694,30.5080215 166.82892,30.5080215 L166.929233,30.6577387 L166.577223,32.7510727 C166.34103,32.7510727 165.870468,32.7339364 165.165536,32.7014677 C164.459692,32.668097 163.736521,32.6518626 162.997848,32.6518626 C161.888925,32.6518626 160.619501,32.6924486 159.19231,32.7754243 C157.764208,32.8584001 157.03283,32.9332586 157,33 L157.251696,30.9066659 C158.428102,30.7073437 159.208725,30.4079095 159.595389,30.0092651 C159.981141,29.6106207 160.175385,28.912542 160.175385,27.915931 L160.225542,14.0580776 C160.225542,13.2941594 160.132524,12.7863839 159.948311,12.5374566 C159.763187,12.2876274 159.385642,12.1640657 158.814766,12.1640657 L157.554461,12.2127689 L157.454148,12.0143486 L157.705844,10.0698297 L162.090465,10.1194348 C162.796308,10.1194348 163.653535,10.086966 164.661231,10.0202247 C165.668928,9.9543852 166.324615,9.90387821 166.626468,9.87050753 L166.475086,11.9638416 C165.736412,12.0639536 165.207485,12.1974364 164.888305,12.362486 C164.568213,12.5293394 164.350259,12.7863839 164.232618,13.1354232 C164.114066,13.4853645 164.038375,14.0580776 164.005545,14.8553664 L163.9563,16.3011288 L163.552309,25.7729919 C167.483694,21.9831643 171.397753,17.929077 175.296308,13.6089262 C175.262567,13.0443303 175.135807,12.6619202 174.917852,12.462598 C174.698986,12.2632758 174.321442,12.1640657 173.784307,12.1640657 L172.575071,12.2127689 L172.472934,12.0143486 L172.725542,10.0698297 L176.80831,10.1194348 C177.580725,10.1194348 178.504523,10.086966 179.579704,10.0202247 C180.655796,9.9543852 181.360728,9.90387821 181.697235,9.87050753 L181.546764,11.9638416 C180.570986,12.0973243 179.933538,12.2876274 179.630773,12.5374566 C179.328008,12.7863839 179.159298,13.2436525 179.126468,13.9083604 L179.026155,16.2515237 C178.756219,21.9678319 178.623076,25.9560797 178.623076,28.2153653 C178.623076,29.1461368 178.739804,29.7774741 178.975086,30.1093771 C179.210367,30.4412802 179.6481,30.6081336 180.286459,30.6081336 C180.655796,30.6081336 180.991391,30.5909973 181.294156,30.5576266 C181.596009,30.5251578 181.798461,30.4917871 181.898774,30.4584165 L182,30.6577387 Z" id="Fill-46" fill="#000000"></path>
                </g>
                <g id="Group-50">
                    <mask id="mask-4" fill="white">
                        <use xlink:href="#path-3"></use>
                    </mask>
                    <g id="Clip-49"></g>
                    <path d="M587.728633,245.341209 L578.34816,245.274544 C578.357908,245.21926 578.367655,245.165602 578.377403,245.110319 C581.490147,245.380233 584.601267,245.651773 587.714012,245.923313 C587.718886,245.728194 587.72376,245.534702 587.728633,245.341209 M5.60152917,292.407069 C4.29372155,296.532201 1.82107161,300.660586 5.16288562,304.971081 C5.35133989,305.214979 5.39520424,305.658874 5.34971528,305.987324 C4.76973103,310.239283 4.29372155,314.510755 3.52853225,318.730195 C2.49853221,324.404894 0.773200912,329.993416 0.207838114,335.703887 C-0.346152443,341.333059 0.414163043,347.080928 0.137980067,352.754002 C-0.0520988045,356.671008 1.17447853,359.703476 3.90544078,362.296927 C5.28635566,363.6091 6.24812226,363.213985 7.03605604,361.485559 C7.40646615,360.675817 8.69152929,359.553885 9.29750723,359.696972 C14.0527282,360.815652 18.4066716,358.560406 22.9653153,358.163665 C27.2412776,357.791314 31.4067668,355.963703 35.5771297,354.638522 C37.3203316,354.08406 39.0359153,353.305212 40.58254,352.339375 C41.0666725,352.038567 41.1950163,350.754036 41.0747955,349.983317 C40.8148586,348.326435 39.9668144,346.716707 39.9424453,345.079336 C39.8920825,341.570454 41.0228081,338.095716 38.8653317,334.633987 C38.1862465,333.546201 38.7142434,330.677957 39.7214989,329.76903 C42.0511836,327.665001 44.8406316,325.816252 47.7600481,324.681312 C51.8036918,323.108981 53.5127771,319.804973 55.3956951,316.455437 C55.7319885,315.858699 56.1430138,315.304237 56.4776825,314.705873 C56.9894333,313.798572 57.7611211,312.909156 57.8943387,311.938441 C58.3476037,308.624677 58.1039129,305.185712 60.7032821,302.445921 C61.1370518,301.989018 61.0070833,300.1484 60.5424461,299.834584 C58.7553798,298.631352 56.8172251,297.442755 54.7637235,296.899675 C51.8475562,296.130582 48.7851744,295.90457 45.7747799,295.512707 C44.6245591,295.364742 43.4499691,295.335474 42.288376,295.372872 C40.1731393,295.441163 38.0530288,295.782621 35.950789,295.678557 C32.0631075,295.483439 28.1770505,295.115965 24.3039905,294.693209 C21.2009935,294.353377 18.0963719,293.937124 15.0323655,293.342012 C12.4541162,292.841208 9.93435268,292.036343 6.85897401,291.226601 C6.68839041,291.377818 5.79810647,291.782689 5.60152917,292.407069 M642.458352,2.5112266 C642.252027,2.75512485 641.834503,2.80715648 641.553446,3.00552706 C637.435071,5.93230615 633.248462,8.76965587 629.232436,11.834644 C626.009218,14.2931384 623.0963,17.1581299 619.863335,19.6068684 C616.999155,21.7759369 613.933524,23.6962292 610.863019,25.5742458 C609.383003,26.4782953 607.673918,27.0018636 606.096426,27.7546962 C604.598539,28.4668791 603.191631,29.3969445 601.646631,29.9790483 C598.051378,31.3302446 594.249801,32.2229123 590.795889,33.8602826 C585.249485,36.4911318 579.641346,38.1187461 573.414232,37.7382648 C570.041551,37.5333903 567.814216,38.5902828 567.898696,42.6341159 C567.923065,43.7999495 567.866204,45.0129369 567.565652,46.1267389 C566.715983,49.2665225 567.927939,51.6681073 570.223507,53.5558798 C574.039705,56.6956634 578.05898,59.5964266 581.839438,62.7784859 C583.671993,64.3231749 584.994422,66.4776095 586.836725,68.0076645 C590.170416,70.7799747 593.816031,73.1750556 597.152971,75.9441138 C599.893681,78.2237495 604.525432,79.3017798 607.485464,78.0790366 C609.175054,77.3798615 610.968619,76.9327147 612.69395,76.3164651 C613.829549,75.911594 615.009013,75.5359907 616.034139,74.9229931 C622.285622,71.1848458 626.009218,65.0158459 630.281932,59.4679736 C632.975528,55.9720985 634.481537,51.5868079 637.001301,47.931586 C639.317989,44.572294 640.802878,41.2373918 641.261017,37.0797396 C641.589188,34.1155627 643.628068,31.3546345 644.815655,28.4668791 C646.342784,24.7433657 648.280939,21.2409867 648.328052,16.9337435 C648.383289,11.7240768 649.174472,6.52091394 649.681349,0.938895834 C647.309424,-0.73262022 644.744172,-0.15051638 642.458352,2.5112266 M563.208459,79.83673 C563.28644,83.2724434 563.647103,86.7032789 563.778696,90.1389924 C564.002891,95.9876726 564.066251,101.842857 564.344058,107.688285 C564.490273,110.771159 565.221346,113.839399 565.219721,116.914143 C565.211598,124.56767 563.033002,131.886244 561.101345,139.19181 C559.025099,147.059968 556.662922,154.859834 554.13991,162.594661 C552.614405,167.279133 550.416313,171.740845 548.786834,176.39605 C548.12237,178.298456 546.310935,180.680529 548.832323,182.399199 C550.614515,183.612186 550.7786,184.965009 550.526787,186.748718 C550.374074,187.81374 550.328585,188.893397 550.211613,190.226707 C550.874452,189.904761 551.548664,189.802324 551.701377,189.464119 C552.302481,188.12593 552.672891,186.682052 553.257749,185.334108 C554.253632,183.04309 554.804374,180.204115 556.505336,178.644792 C560.098964,175.350539 563.723459,171.186383 569.680888,173.540814 C570.028554,173.679023 570.632907,173.222121 571.099169,173.004238 C573.831756,171.718081 575.003097,168.121395 578.559359,167.978308 C578.988255,167.960422 579.326173,167.090518 579.810305,166.776703 C580.815936,166.123055 581.876804,165.549081 582.94417,164.996245 C584.146378,164.373492 585.705999,164.100326 586.536173,163.165382 C588.778129,160.640223 588.890227,156.54761 592.483854,154.936255 C592.664186,154.856582 592.703176,154.474475 592.826646,154.243584 C595.525116,149.141233 598.202467,144.025873 600.944801,138.946286 C601.735984,137.479644 602.408571,135.712195 603.654644,134.775625 C607.163792,132.141524 608.456978,128.442401 609.599076,124.505883 C610.195306,122.447381 611.319533,120.546601 612.001868,118.505986 C612.711821,116.377567 613.680086,114.146711 613.598855,111.995528 C613.525748,110.019952 612.526615,107.870396 611.366647,106.192376 C609.452861,103.421691 607.245022,100.802224 604.869849,98.4136472 C598.408792,91.9161977 591.895747,85.4626498 585.186125,79.2286103 C583.126125,77.314822 580.484516,75.8611884 577.868901,74.7734022 C576.273538,74.1099989 573.766772,75.2303049 572.467087,74.3587751 C569.458317,72.3425495 566.68674,73.6969979 563.689342,73.8888645 C563.497639,76.0823228 563.166219,77.9652174 563.208459,79.83673 M821.22022,80.0887582 C814.884257,78.7668296 813.989099,79.4920205 813.160551,85.7488237 C812.861623,87.9991917 812.562696,90.5780092 811.300377,92.3064349 C808.783863,95.7502783 805.918058,99.0998143 802.61361,101.764809 C798.974493,104.699718 796.295518,108.252503 793.649036,111.961382 C792.178767,114.02151 789.96443,115.69953 789.004288,117.941768 C787.941796,120.418148 786.557632,122.226247 784.470013,123.83435 C783.202821,124.811569 782.119209,126.331868 781.5376,127.832655 C779.566953,132.928503 777.776638,138.100772 776.104918,143.302308 C775.708514,144.53806 776.033436,146.006327 776.026937,147.368905 C777.476085,147.264842 779.082821,147.518496 780.337016,146.967286 C781.984366,146.242095 783.297048,144.790088 784.85342,143.809617 C791.749872,139.464976 797.572458,133.933363 802.790692,127.722088 C803.931165,126.364387 805.391686,125.146522 806.117885,123.590451 C809.771623,115.753187 813.464352,107.915923 816.68757,99.8949226 C819.19921,93.6429973 821.457412,87.2154653 821.22022,80.0887582 M783.782805,158.544324 C782.184193,164.358858 783.955013,165.199494 789.374698,166.04826 C800.036985,167.719776 810.62779,166.815726 820.381923,161.482485 C822.939053,160.082509 825.252491,158.23376 827.811245,156.837036 C831.733043,154.700487 835.788059,152.807836 839.753722,150.749335 C842.104526,149.528218 844.58205,148.427424 846.655047,146.825825 C848.344637,145.518531 849.857145,145.042116 852,145.83072 C849.75317,150.949332 846.796388,155.407792 842.037918,158.558957 C837.170599,161.78004 832.425125,165.18486 827.559431,168.410821 C826.150898,169.345764 824.518169,169.944128 822.982917,170.683953 C822.828579,170.757122 822.552396,170.669319 822.466292,170.771756 C819.143974,174.67738 813.959857,173.783087 809.802491,175.592812 C807.292475,176.685476 804.256087,176.652956 801.437396,176.91474 C799.408263,177.103355 797.312522,177.181402 795.311007,176.880594 C792.623909,176.477349 789.975802,175.740777 787.353688,174.996074 C785.67872,174.519659 784.068736,173.800972 782.452253,173.132691 C778.065817,171.318088 775.892095,167.225475 773.006795,163.871061 C771.390312,161.991419 769.780328,160.105272 768.222331,158.178476 C765.994997,155.4208 763.636069,152.749301 761.660549,149.820896 C754.729981,139.547901 753.735722,128.296062 756.335091,116.434476 C757.025548,113.286563 757.754996,110.408564 760.120422,107.937061 C761.192662,106.818381 760.963593,104.551753 761.673545,102.964789 C764.534476,96.5681504 769.122363,91.3536057 774.095281,86.6349874 C778.79689,82.1700233 783.568357,77.5587203 789.875076,75.2368089 C792.485818,74.2742237 795.116055,73.2905008 797.819399,72.6856331 C798.998862,72.422223 800.376528,73.2238352 801.676213,73.2986307 C804.252837,73.4449697 806.83921,73.4856194 809.419084,73.4596036 C817.105093,73.3880601 824.519794,70.7214391 832.361766,71.5084175 C839.566892,72.2287304 844.559306,75.5213568 847.813391,81.8220618 C848.193549,82.5602605 848.706924,83.2529316 849.262539,83.8724331 C852.441893,87.4089579 852.066609,91.872296 851.878155,95.9876726 C851.653959,100.816858 850.727934,105.675311 849.550095,110.380922 C848.601325,114.172727 847.287019,118.027945 845.313123,121.369351 C842.302728,126.463573 839.435299,131.894374 833.300788,134.256935 C832.015725,134.751236 831.084826,136.151212 829.973595,137.113797 C826.753627,139.907245 823.93981,143.021012 819.688216,144.697406 C815.093831,146.508758 811.037191,149.645289 806.595519,151.907039 C803.887301,153.287503 800.92402,154.206187 798.019225,155.15739 C795.401985,156.01266 792.719761,156.684193 790.040786,157.331336 C788.079887,157.804499 786.079997,158.106933 783.782805,158.544324 M751.41416,155.557383 C746.44774,156.508586 744.082314,161.461347 739.708876,163.245056 C735.847188,164.819013 731.923765,166.540934 727.863875,167.225475 C724.681273,167.762052 721.25173,166.750687 717.924537,166.547438 C716.156966,166.440123 715.401525,165.656397 715.822298,163.965369 C716.943276,159.456503 717.79132,154.833818 719.435421,150.521697 C720.299711,148.261573 721.612392,145.555928 724.767377,145.08114 C725.089049,145.033986 725.386352,144.469768 725.59755,144.089287 C727.153923,141.286083 729.246415,138.627592 730.092834,135.621139 C731.360027,131.107396 731.892898,126.364387 732.463134,121.686419 C732.942393,117.772665 732.506999,113.975982 730.260169,110.471977 C728.291147,107.400485 726.499207,104.311107 723.773118,101.730664 C721.329711,99.4168821 719.669364,96.2998623 717.381919,93.7925883 C713.206682,89.2203089 705.291603,85.7797175 698.463385,89.2577067 C695.080956,90.9796284 691.472707,92.1942417 687.60777,90.8300374 C687.396571,87.2170912 686.59564,84.0155201 683.292817,81.9505149 C682.324552,81.3440212 681.575609,80.3700542 680.761681,79.5294182 C678.838148,77.5408344 676.99422,75.4693252 675.012201,73.544155 C671.787359,70.4125013 668.434173,67.4141788 665.217453,64.2760212 C662.668447,61.786633 660.329015,59.0761104 657.732895,56.6371278 C655.656649,54.6875677 653.616144,52.3250066 649.752831,53.4843363 C650.033888,54.8322807 650.314945,56.1607132 650.583005,57.4923977 C651.13862,60.241944 652.277469,63.0288881 652.119882,65.7361588 C651.733226,72.2693801 650.781207,78.7717076 649.968904,85.2740351 C649.73821,87.117906 649.263825,88.9406389 648.794314,90.745486 C647.302926,96.4787211 645.803415,102.213582 644.224298,107.922427 C641.777642,116.774308 639.306616,125.618059 636.755985,134.439046 C635.214235,139.76741 633.778083,145.152683 631.789566,150.316822 C629.264928,156.876059 626.592452,163.428793 623.310748,169.630312 C620.087531,175.724517 619.414944,178.184637 621.978572,184.99265 C624.514581,182.417085 626.816648,180.00737 629.203193,177.687085 C630.26731,176.654582 631.367168,175.322898 632.681474,174.958676 C635.638257,174.137552 636.53179,171.527841 638.211632,169.575029 C639.204266,168.423829 640.235891,167.274255 641.418604,166.33606 C642.999345,165.082423 644.827027,164.134472 646.388273,162.859697 C647.350039,162.079222 648.207831,161.032086 648.77157,159.932918 C649.721964,158.084169 650.321443,156.054935 651.245844,154.189927 C651.55127,153.572051 652.412311,152.796455 652.995544,152.819218 C655.651775,152.913526 656.004314,150.871284 656.852358,149.152615 C657.552564,147.734753 658.34862,146.325021 659.336381,145.100652 C660.626318,143.500679 662.351649,142.234034 663.527863,140.567396 C666.149977,136.85689 666.078494,131.835838 669.673747,128.431019 C671.55504,126.650561 673.015561,124.03272 673.748258,121.52382 C674.848116,117.758031 677.764284,115.673514 680.314915,113.393878 C683.928038,110.167917 688.039915,107.467151 692.965719,106.483428 C694.725167,106.132214 697.101966,105.068818 698.11572,105.810268 C699.192833,106.600499 699.314679,109.150049 699.282187,110.92075 C699.183086,116.453988 697.72094,121.696175 695.865641,126.925353 C692.73665,135.726829 690.023558,144.677895 687.209741,153.588311 C685.901934,157.732955 686.108259,162.136132 687.864457,165.861271 C690.830988,172.15222 696.559347,176.106624 702.307202,179.649653 C706.445073,182.200828 711.224663,182.960165 716.135847,183.181299 C721.558781,183.426824 726.008576,181.852867 729.818276,177.971633 C730.999364,176.768401 732.786431,176.163534 734.281068,175.259484 C737.728481,173.176593 741.775374,172.036775 744.272393,168.462853 C745.266652,167.040113 746.862015,166.05639 748.005737,164.719827 C749.539365,162.929614 750.969018,161.040216 752.29957,159.095534 C752.952662,158.141078 753.280832,156.963863 754.003782,155.328118 C752.460406,155.46145 751.927536,155.459824 751.41416,155.557383 M48.2035655,209.827997 C49.5812312,205.935381 50.6940861,201.946831 51.914165,197.997306 C52.2472092,196.917649 52.24396,195.47052 52.9620357,194.820124 C55.4298118,192.58439 58.0974145,190.558409 60.7893862,188.590963 C62.0793231,187.649516 63.6097017,187.041396 65.0068627,186.243036 C67.3674148,184.898343 69.9277935,183.789419 72.0072888,182.091887 C74.3418473,180.184603 76.2101439,177.74562 79.5080935,177.319611 C80.2456645,177.225304 81.0189768,176.586291 81.5648444,176.000935 C82.8385353,174.64486 83.7206962,172.475792 85.238078,171.900192 C87.5385197,171.028662 89.103015,169.552265 90.232116,167.732784 C92.1117848,164.711697 93.6502865,161.466225 95.148173,158.230508 C96.2529049,155.840305 97.529845,153.383436 97.9132519,150.835513 C98.6946873,145.655114 98.8376526,140.382033 99.4241353,135.169115 C99.6467063,133.180531 100.411896,131.255361 100.832668,129.279785 C100.990255,128.525326 100.941517,127.705828 100.870034,126.928605 C100.76606,125.816429 100.278678,124.674986 100.43464,123.616467 C101.013,119.691331 102.043,115.821479 102.429656,111.883335 C102.972274,106.353348 103.163978,100.785964 103.363804,95.228336 C103.480776,92.0348948 103.420665,88.8251938 103.241959,85.6333786 C103.068126,82.498473 102.387416,79.3733233 102.395539,76.2449217 C102.405287,72.7409167 103.032385,69.2417897 103.202968,65.7312808 C103.290697,63.9004179 103.306943,61.9411019 102.759451,60.2305621 C101.779814,57.172078 100.210444,54.3087124 99.1382047,51.2729921 C97.8401447,47.5998844 95.6924159,45.0015549 91.768993,44.0470998 C90.5131728,43.7430399 89.3369582,43.1186604 88.1282516,42.6259859 C86.5361379,41.9755906 84.9960117,41.1349546 83.3486615,40.6845558 C79.7127938,39.6878249 76.0476833,38.7642635 72.3517052,38.0374467 C69.3689291,37.4520909 66.3309164,37.1138853 63.3010266,36.8244594 C61.4570991,36.6472266 59.4702063,37.1740469 57.7416258,36.6862504 C52.828818,35.3009083 48.0134866,33.5611007 43.1624139,31.9529982 C41.4078397,31.3708944 39.6857576,30.3953013 37.9019405,30.2635963 C34.9110413,30.0424618 29.4409938,34.357835 28.6693061,36.5382854 C25.8928549,37.5659101 23.613533,38.409798 21.9450629,39.0260476 C24.520063,43.0601248 27.4882177,46.391775 28.9471137,50.2892692 C31.4083914,56.8794001 32.8412936,63.8483862 34.8509309,70.6157499 C36.2740855,75.4042857 37.2910887,80.1537977 36.5681392,85.2252555 C36.1408679,88.2121961 36.2838332,91.2918181 36.2919562,94.3291644 C36.3082023,100.306298 36.4089278,106.283431 36.4739121,112.36788 C38.9693065,112.980877 38.9709311,112.980877 38.7126188,116.016597 C38.5810257,117.543401 38.270726,119.081586 38.3535809,120.597007 C38.493297,123.192084 36.3975556,126.205041 39.6451425,128.297688 C39.7864832,128.387117 39.7247481,128.808248 39.737745,129.076536 C39.9408207,133.026062 40.4736914,136.991848 40.2592434,140.918609 C39.9911835,145.829094 39.2519879,150.728197 38.4591803,155.593155 C37.2001108,163.323103 35.7103474,171.014028 34.3538016,178.727717 C33.2279498,185.127608 32.2109466,191.54701 31.0022399,197.93064 C30.7910412,199.046068 29.881262,200.033043 29.2785332,201.067172 C28.6059465,202.221623 27.4979653,203.299654 27.3046373,204.524023 C26.5053312,209.567839 26.0829337,214.671816 25.3128706,219.72051 C24.9440851,222.154615 24.3543532,224.614735 23.4348264,226.889493 C22.2131229,229.915457 20.0978862,232.63411 19.2189745,235.72674 C17.8218136,240.653485 17.3490533,245.837136 16.0639901,250.801278 C15.1834538,254.197968 15.5668608,258.223915 11.960236,260.615744 C11.498848,260.919804 11.622318,262.53441 11.890378,263.415696 C12.2721603,264.677463 13.0828386,265.799395 13.6238323,267.020512 C13.9292582,267.705053 14.0576021,268.469268 14.2655516,269.196085 C15.0421131,268.875765 16.0412457,268.758694 16.5627441,268.197728 C18.5886275,266.017277 19.4382963,263.927882 18.2344634,260.534445 C16.9266558,256.853207 17.7454571,252.666287 19.8249524,249.032203 C20.8045897,247.315159 21.4901733,245.375355 22.7183753,243.868064 C24.6224132,241.52664 24.750757,237.609634 28.6936752,236.990133 C29.1371925,236.921841 29.452366,236.086083 29.843896,235.619425 C31.5838488,233.526778 32.9712621,230.801621 35.1904735,229.559366 C36.9353001,228.580521 37.747603,227.570782 38.270726,225.94642 C38.5127923,225.193587 38.4786755,224.331813 38.8100951,223.634264 C40.1114043,220.891222 41.5085652,218.193707 42.9479659,215.322212 C43.6530448,215.34335 44.5352057,215.367739 45.3637547,215.392129 C46.3628872,213.471837 47.5293541,211.736907 48.2035655,209.827997 M188.662104,163.895451 C188.761205,167.862863 188.067498,171.84816 187.71171,175.823702 C187.56712,177.438308 187.768571,179.218766 187.152845,180.636628 C184.72081,186.230028 184.394265,192.190901 183.508855,198.086735 C182.977609,201.626512 181.879375,205.150028 180.550448,208.488183 C177.325605,216.601865 173.697861,224.557826 170.468144,232.671508 C168.684327,237.152732 170.744327,240.490886 175.463807,241.458349 C177.554675,241.88761 180.194659,241.557534 181.655179,242.731498 C184.363397,244.908696 185.201694,241.848586 186.922151,241.502251 C188.337183,241.216077 189.552388,239.918538 190.96742,239.648624 C193.262987,239.209607 195.690148,239.455131 197.988966,239.022618 C200.310527,238.585227 202.866032,238.303931 204.164092,235.738122 C204.367168,235.334877 204.991016,235.154392 205.398792,234.843828 C206.432042,234.051972 207.754471,233.430844 208.397815,232.390212 C209.143509,231.185354 209.343335,229.621154 209.681253,228.188658 C211.414707,220.8148 212.985701,213.398667 214.904361,206.075216 C215.570449,203.525666 216.931868,201.120829 218.22343,198.78591 C219.992626,195.584339 221.843052,192.403906 223.946916,189.418591 C226.008541,186.495064 228.451948,183.843077 230.687405,181.038247 C231.722279,179.73583 233.095071,178.487071 233.538588,176.983032 C234.115323,175.033472 235.038099,174.335923 236.909645,174.524537 C237.975387,174.633479 239.044377,174.713152 239.981775,174.794451 C240.175103,175.139161 240.293699,175.274118 240.334314,175.430213 C243.406444,187.07229 239.762453,198.21844 237.678084,209.44589 C236.066475,218.130294 237.268683,228.144756 246.376223,233.512144 C249.311885,235.242195 252.405135,237.378744 256.049125,235.754382 C259.941681,234.017826 263.421586,234.829194 267.01034,236.567376 C270.795672,238.401491 274.748338,238.629129 278.379331,236.287706 C281.878732,234.029208 285.053212,231.26828 288.546114,228.995148 C293.553149,225.736667 297.153275,221.104226 300.605563,216.466908 C302.602203,213.782401 304.048102,210.725543 306.826178,208.637774 C307.402913,208.205261 307.596241,207.286577 308.026762,206.631304 C309.337818,204.636216 312.432692,204.189069 313.591036,205.849203 C314.910216,207.741854 316.23427,209.641008 317.421857,211.616584 C320.292535,216.385608 325.018513,218.803453 329.859838,220.507489 C333.999334,221.962748 338.564476,222.392009 342.985028,222.814766 C347.961195,223.287929 352.877252,222.920455 356.542363,218.694512 C356.818546,218.375818 357.45864,218.390452 357.908656,218.205089 C360.444666,217.164457 363.318593,216.566093 365.424082,214.95799 C368.736653,212.429578 371.522852,209.211747 374.542994,206.297976 C376.253704,204.649224 379.744982,204.719142 381.19413,206.65732 C385.795014,212.811686 392.595613,214.16776 399.492065,214.77588 C404.412996,215.210019 408.37216,212.453968 411.965788,208.741837 C410.417538,208.990613 409.130851,209.374346 407.847412,209.369468 C401.189778,209.346704 397.666008,209.906044 398.83085,201.115951 C399.717885,194.398993 402.471592,188.322675 406.169194,182.555294 C409.421655,177.480584 412.41093,172.114823 414.607397,166.518171 C416.477318,161.758903 415.177633,156.757362 411.41992,153.139538 C407.629715,149.49082 403.134431,146.578675 399.293863,142.975485 C397.155882,140.970641 395.378563,141.295839 393.396544,142.56411 C391.762191,143.612872 390.303295,144.931549 388.764793,146.129902 C389.040976,146.227462 389.315534,146.323395 389.591717,146.419328 C389.809415,147.764021 390.277301,149.129851 390.174951,150.451779 C390.061228,151.921673 389.546228,153.39807 388.998736,154.789916 C386.027332,162.336128 382.9682,169.849821 379.995171,177.396033 C379.096764,179.674042 378.963547,182.550416 377.457537,184.238192 C373.139335,189.078759 368.473467,193.652665 363.607773,197.950152 C359.276574,201.772851 354.613956,205.257344 349.868482,208.562978 C346.989681,210.566196 343.774586,212.174298 340.536747,213.546632 C336.995107,215.04742 332.503072,212.657217 332.447835,209.333697 C332.399097,206.468705 332.559933,203.49965 333.273135,200.7436 C334.749901,195.033129 336.413498,189.343795 338.457252,183.815435 C340.236195,179.009013 342.301069,174.236737 344.879318,169.823805 C347.038419,166.123055 350.034192,162.888964 352.830139,159.593086 C354.306905,157.846774 356.113467,156.372003 357.827426,154.843574 C359.101117,153.707008 360.595754,152.798081 361.768719,151.575337 C364.31935,148.913594 366.727016,146.113642 369.202915,143.381982 C369.30689,143.268163 369.526212,143.232391 369.700045,143.212879 C372.697442,142.869796 373.160455,140.464959 373.842789,138.195079 C374.765565,135.113831 372.814414,132.853707 371.271038,130.839107 C368.981969,127.848915 366.075549,125.323755 363.37383,122.662012 C361.175738,120.496195 358.750202,119.772631 355.910391,121.624631 C351.842378,124.274992 347.475438,126.526986 343.660864,129.494415 C334.597188,136.544701 326.867314,144.845371 321.476872,155.134626 C315.738765,166.093788 312.150011,177.713101 310.848702,190.008825 C310.483165,193.470554 310.624506,196.984315 310.38244,200.462304 C310.332077,201.208633 309.820326,202.211867 309.209475,202.587471 C304.158575,205.688231 299.039443,208.680049 293.925184,211.68325 C288.739442,214.728726 283.529332,217.735178 278.34359,220.783907 C275.703606,222.336726 272.990514,223.001755 269.924883,221.738362 C270.132833,219.346533 269.723432,216.694546 270.693322,214.722222 C271.973511,212.117389 271.8143,209.855639 271.429268,207.211782 C271.157959,205.363033 271.799678,203.367945 272.118101,201.452531 C272.213953,200.881809 272.797186,200.366371 272.811808,199.816787 C272.927155,195.278653 272.460893,190.65922 273.162722,186.223524 C273.815814,182.088635 272.114852,178.64154 271.029615,175.126153 C269.837154,171.274187 267.562706,167.818961 264.727769,164.597878 C262.11053,161.625571 259.488416,158.850009 256.164473,156.837036 C252.570845,154.661463 248.827753,152.711903 245.031049,150.911934 C243.292721,150.089184 241.086507,149.098957 239.42291,149.513584 C235.707437,150.442023 232.069945,151.952567 228.6469,153.708634 C225.902941,155.115114 223.524519,157.232151 220.982011,159.035372 C218.140575,161.048346 215.481096,160.006087 214.35037,156.845166 C213.611174,154.785038 212.509692,152.612718 210.961442,151.126565 C206.324818,146.67786 201.441253,142.443787 195.155653,140.408049 C192.650511,139.596681 189.995905,138.317028 187.523255,138.539788 C183.261915,138.926774 179.075306,140.260084 174.887072,141.315351 C172.037513,142.035663 169.301677,143.663278 165.928996,141.928348 C166.331898,139.814563 166.957371,137.653625 167.110084,135.461792 C167.322908,132.365911 167.58122,129.183851 167.118207,126.146505 C166.052466,119.174267 161.404469,114.561338 155.822324,110.86384 C152.166961,108.442744 148.393002,106.1501 144.482575,104.179402 C140.401566,102.120901 136.117481,100.460767 131.865887,98.7648607 C131.149436,98.4786868 130.004089,98.6250257 129.32013,99.0233929 C127.690651,99.9697181 126.218758,101.185957 125.172512,101.942042 C126.447827,106.013517 128.116297,109.83459 128.756392,113.821513 C129.316881,117.306006 128.918852,120.992122 128.597181,124.557914 C128.06431,130.471634 127.30237,136.365842 126.542054,142.258424 C125.586786,149.653419 124.586029,157.046788 123.505666,164.425523 C122.912685,168.479113 122.199483,172.518068 121.383931,176.532633 C120.308442,181.828477 119.138726,187.109687 117.894278,192.36976 C116.874026,196.673751 115.723805,200.948474 114.557338,205.21832 C113.600445,208.722325 112.570445,212.208444 111.512827,215.684807 C110.820745,217.951435 110.045808,220.195299 109.267621,222.435911 C107.220618,228.334997 105.362069,234.310504 103.034009,240.095771 C100.751438,245.773722 97.9441195,251.240295 95.4471004,256.833695 C94.7306493,258.43692 94.2871319,260.160467 93.7120215,261.844991 C100.197448,261.708408 106.114262,261.810846 111.982338,261.336057 C113.975729,261.173458 116.206313,259.924699 117.683079,258.501959 C119.315808,256.928002 120.349057,254.654871 121.380682,252.55572 C122.153994,250.986641 122.651124,249.511869 124.00442,248.074496 C127.481076,244.381876 131.909752,241.310384 133.420635,236.025922 C133.630209,235.287723 134.091597,234.461721 134.689452,234.03246 C135.89166,233.172312 136.460272,232.240621 136.816061,230.70894 C137.402544,228.190284 138.203474,225.452119 139.772843,223.492803 C142.355967,220.266842 142.619153,216.436014 143.616661,212.798678 C144.521566,209.497921 144.982954,206.076842 145.668538,202.712672 C145.735147,202.392352 146.012954,202.11756 146.190036,201.818378 C147.012087,200.413524 148.126566,199.0981 148.584705,197.582679 C149.322276,195.145322 149.975367,193.059179 151.809547,190.865721 C154.672103,187.441389 156.490037,182.937401 157.445305,178.417153 C158.51592,173.374964 159.232371,168.249848 159.89521,163.132863 C160.49144,158.554079 163.025825,155.606163 167.504863,154.333014 C171.056252,153.324901 174.739233,152.422477 177.962451,150.715189 C180.878618,149.1705 183.65182,148.560755 187.251946,149.092453 C187.758823,154.084237 188.541883,158.98334 188.662104,163.895451 M182.88988,443.503665 C187.593113,443.511795 193.402704,443.729677 199.194423,443.476023 C205.639234,443.197979 212.08567,442.674411 218.49149,441.906944 C223.093998,441.354108 227.672137,440.406157 232.178793,439.298859 C236.898273,438.141155 241.565765,436.724919 246.1634,435.152589 C249.492217,434.016023 252.661823,432.419302 255.917532,431.06648 C259.694741,429.497401 263.51094,428.02263 267.263779,426.399893 C268.594331,425.824293 269.736429,424.809677 271.062107,424.217817 C274.392549,422.726786 277.792849,421.390223 281.141161,419.939841 C286.078338,417.801667 291.062628,415.749669 295.900704,413.403368 C298.779506,412.009896 301.375626,410.05058 304.182944,408.496135 C305.399774,407.822976 306.9399,407.723791 308.137235,407.027868 C311.077771,405.32058 313.935453,403.460449 316.772014,401.582433 C322.214443,397.977616 327.962299,395.036203 332.65416,390.081817 C337.26804,385.20873 343.485406,381.880331 348.862851,377.696663 C353.262284,374.27721 357.635722,370.782961 361.703735,366.984652 C366.835865,362.187986 371.621953,357.025473 376.604619,352.06946 C379.642632,349.046748 382.911339,346.248422 385.830755,343.12002 C390.543736,338.071327 394.926923,332.712069 399.682144,327.705651 C408.24544,318.687919 415.80798,308.922233 422.355141,298.359812 C426.468643,291.720902 430.665,285.125893 434.533186,278.345521 C437.710915,272.773259 440.495489,266.973359 443.385663,261.240124 C444.771451,258.493829 443.751199,256.607683 440.698565,256.505245 C437.332382,256.393052 433.946703,256.770282 430.58052,256.64508 C424.225063,256.407686 418.696529,259.339343 412.948674,261.230368 C408.492381,262.698635 404.425992,265.230299 399.540803,265.579887 C397.692002,265.711592 395.895188,266.734338 394.103247,267.430261 C391.767064,268.335937 389.531607,269.59933 387.125566,270.196068 C384.10055,270.945648 380.942316,271.148897 377.852316,271.661083 C377.243089,271.760268 376.705345,272.243187 376.100991,272.452939 C373.623468,273.311461 372.094714,276.630104 368.717158,275.283785 C368.414982,275.163462 367.757016,275.856133 367.300502,276.217103 C366.662032,276.729289 366.104792,277.66911 365.428956,277.753662 C363.141511,278.034958 360.730596,278.464218 358.526006,278.028454 C353.848766,277.103266 350.289255,279.480461 346.908451,281.768227 C344.120627,283.654373 341.20446,284.70151 338.109586,285.773036 C334.829507,286.909602 331.864602,288.950218 328.196242,288.8803 C327.986668,288.877048 327.794964,289.247773 327.554523,289.351837 C323.582362,291.075384 319.676809,293.000555 315.599049,294.426546 C312.405074,295.545226 309.57826,297.473649 305.966761,297.82161 C303.516856,298.06063 301.281399,300.135392 298.862361,301.190658 C296.529427,302.206901 293.800089,302.54348 291.751461,303.928823 C288.058732,306.431219 282.775515,305.179208 279.856098,309.234423 C279.825231,309.278324 279.677391,309.226293 279.594536,309.253934 C275.95542,310.46367 272.295183,311.616496 268.686934,312.91566 C267.184173,313.455488 265.234646,313.927025 264.458085,315.083103 C262.404583,318.131831 258.950671,317.307455 256.27982,318.483044 C252.647201,320.084643 248.419977,320.270006 244.585907,321.502505 C241.000403,322.655331 237.63097,324.469934 234.102327,325.826008 C231.693036,326.751195 229.100165,327.214602 226.715244,328.191821 C220.567736,330.710477 214.507957,333.440512 208.373445,335.991687 C207.185859,336.485988 205.720464,336.334771 204.553997,336.858339 C198.453603,339.591626 192.366205,342.357432 186.356788,345.284211 C181.390369,347.705308 176.505179,350.302011 171.652482,352.944242 C168.312292,354.762097 165.046835,356.726291 161.821993,358.740891 C156.782466,361.888804 151.625967,364.888753 146.859374,368.41227 C142.973317,371.285391 139.300083,374.574766 136.054121,378.155192 C132.827654,381.711229 129.853001,385.636365 127.523316,389.821659 C125.718379,393.060628 125.360966,397.071941 123.854956,400.519036 C121.720224,405.392123 120.368552,410.393664 120.21451,415.678126 C120.184972,416.816318 120.693474,418.404908 121.525272,419.055304 C124.470682,421.359329 127.778379,423.19507 130.730288,425.490966 C135.285682,429.030742 140.50879,430.957539 145.977213,432.359141 C150.760052,433.58351 155.581882,434.663166 160.376093,435.848512 C160.72051,435.934689 161.068175,436.31517 161.264753,436.646872 C163.079437,439.700478 166.357892,440.547618 169.317923,441.345978 C173.350195,442.433765 177.600164,442.710183 182.88988,443.503665 M576.024974,246.372086 C572.553191,246.799721 569.03592,247.80946 565.619374,247.542797 C556.518333,246.837119 547.56513,246.729803 538.480335,248.349288 C532.862448,249.349271 526.939136,248.602942 521.153915,248.723265 C516.754482,248.817572 512.327432,248.776923 507.968615,249.280979 C503.265381,249.824059 498.419182,250.367139 494.032747,251.986624 C491.165317,253.045142 489.071201,252.550842 486.51732,251.851667 C484.338724,251.256555 482.423314,250.874448 480.389308,253.513427 C476.015869,259.1865 470.698534,264.114871 466.053787,269.592826 C464.190364,271.792788 463.152241,274.675666 461.616988,277.173184 C458.741436,281.852778 455.865884,286.540503 452.790505,291.090018 C451.859606,292.46723 450.194385,293.327378 449.011672,294.563129 C448.014164,295.605388 446.924054,296.730572 446.410679,298.031363 C445.123991,301.293095 443.562745,304.223126 440.711562,306.462112 C439.528849,307.390552 438.956987,309.062068 437.983849,310.299445 C435.452713,313.518902 432.851719,316.684701 430.279968,319.873265 C428.416545,322.180542 426.631104,324.556111 424.675078,326.782089 C422.699558,329.029205 420.551829,331.123478 418.48858,333.294173 C412.953548,339.115211 407.379526,344.902104 401.907853,350.783304 C399.422207,353.453177 397.222491,356.39459 394.723847,359.053081 C393.518389,360.335985 391.832049,361.152232 390.524241,362.353837 C389.099462,363.662758 387.856638,365.165171 386.545582,366.594415 C385.975345,367.217168 385.517206,367.971627 384.867364,368.483813 C380.791228,371.696766 376.656606,374.838176 372.586969,378.057633 C371.883515,378.615347 371.495234,379.581184 370.782032,380.11776 C368.312631,381.977891 365.726259,383.680301 363.266606,385.551813 C361.989666,386.52578 360.928798,387.777791 359.698972,388.816798 C358.423656,389.88995 357.101227,390.912697 355.733309,391.860648 C351.907363,394.511009 348.045675,397.114217 344.196984,399.732058 C341.662599,401.457232 339.194823,403.294598 336.571084,404.873433 C332.67528,407.22136 328.785974,409.635953 324.68222,411.569253 C318.494096,414.486276 313.090658,418.987012 306.046367,420.261787 C303.282913,420.762592 300.815137,422.780443 298.154032,423.980423 C292.368811,426.586882 286.577092,429.180333 280.733385,431.651836 C273.719962,434.617639 266.691918,437.5558 259.589141,440.300468 C254.674709,442.201248 249.688794,443.970324 244.616775,445.37843 C241.859819,446.142644 238.851049,445.95403 235.972248,446.331259 C232.41761,446.799543 228.835355,447.209293 225.347326,448.006027 C217.493982,449.792988 209.544786,449.688925 201.579344,449.679169 C196.876111,449.674291 192.122514,450.303548 187.481016,449.8125 C180.287261,449.049911 173.166614,447.580018 166.018349,446.393046 C165.147561,446.249959 164.30439,445.908502 163.431977,445.809317 C160.881346,445.523143 158.567907,445.040224 156.142371,443.734555 C152.306677,441.667924 147.912118,440.641925 143.387591,439.046831 C143.069168,435.672905 139.553522,436.760691 137.214089,435.931437 C133.409263,434.580241 129.430603,433.637168 125.771991,431.978659 C123.915067,431.138023 122.704736,428.962451 120.989152,427.673042 C119.778821,426.760863 118.124972,426.464933 116.818789,425.653565 C112.979846,423.273118 109.714388,420.362598 107.795729,416.082997 C106.603268,413.418002 103.932416,410.990401 103.799199,408.362804 C103.513268,402.712495 104.43117,397.002023 104.874688,391.317568 C105.022527,389.429795 105.243473,387.546901 105.402684,385.660754 C106.403442,373.89998 108.104404,362.327821 110.867858,350.771922 C113.634562,339.199762 120.037133,330.729989 128.506203,323.216297 C132.570966,319.606602 136.577244,315.920487 140.801219,312.509163 C143.459074,310.362859 146.406109,308.545004 149.343396,306.78731 C154.275699,303.836141 159.19338,300.819933 164.327135,298.254123 C169.733823,295.55173 175.442687,293.462335 180.915984,290.885144 C185.204943,288.86404 189.285953,286.397416 193.570038,284.363304 C195.090669,283.641365 196.932972,283.586082 198.635559,283.26251 C201.303161,282.756828 203.978887,282.296673 206.64649,281.787739 C208.539155,281.426769 210.45619,281.135717 212.303367,280.604019 C214.244771,280.049557 216.18455,279.808911 217.940749,278.247962 C219.276175,277.062617 221.89179,276.555308 223.750339,276.869124 C229.86373,277.898375 235.479992,275.608983 240.876932,273.890313 C244.706128,272.670822 248.379362,271.939127 252.276791,271.607425 C257.298447,271.181417 262.33635,270.802561 267.325514,270.111516 C268.878637,269.898512 270.300167,268.737556 272.426776,267.693671 C275.287707,268.446504 279.012928,269.022104 282.666666,267.109942 C282.972092,266.948969 283.326256,266.77824 283.657675,266.781492 C292.06501,266.866043 300.272518,265.384768 308.436162,263.594555 C313.136147,262.562052 317.787393,261.274269 322.518245,260.423877 C331.266747,258.854799 340.060738,257.55726 348.823861,256.075984 C354.20618,255.165431 359.544634,253.978459 364.943199,253.184977 C370.345013,252.391495 375.795565,251.911828 381.229872,251.332976 C385.434351,250.884204 389.640456,250.415919 393.857932,250.102103 C399.594415,249.672842 405.34227,249.40618 411.083627,249.030577 C415.851845,248.718387 420.618438,248.362296 425.383406,248.006204 C431.815221,247.523286 438.243785,247.004595 444.677224,246.534685 C446.270962,246.41924 447.876073,246.32981 449.468187,246.398102 C453.521578,246.575334 454.928486,243.438803 456.158313,240.646981 C458.858408,234.518631 460.936278,228.112236 463.685111,222.008276 C465.925443,217.037629 468.830238,212.369417 471.319134,207.502834 C472.264654,205.655711 472.865758,203.632981 473.837273,201.143593 C469.847241,200.980994 466.542793,199.764755 463.395932,201.998863 C463.072635,202.228127 462.523518,202.351702 462.140111,202.260647 C458.531862,201.405377 454.41836,201.304566 451.456704,199.411915 C447.067019,196.605459 442.110347,194.298182 439.093454,189.493386 C437.784022,187.407243 435.238265,186.140598 433.456072,184.303231 C429.732476,180.461021 428.655362,175.514764 428.163107,170.415665 C427.254952,160.999566 430.119132,152.334674 433.711135,143.8649 C435.979085,138.518651 439.975615,134.313845 443.601735,129.92205 C449.196877,123.14493 456.117698,117.725511 463.356941,112.925594 C471.528708,107.511052 480.392557,103.228199 489.683677,99.9339464 C492.531611,98.9242076 494.814182,100.402231 496.279576,102.119275 C499.746485,106.172864 502.789372,110.611812 505.733157,115.073524 C506.262779,115.87351 505.90699,117.790551 505.276643,118.738502 C502.332857,123.16119 498.060144,125.943256 493.064482,127.579001 C490.379008,128.458661 487.576563,128.980603 484.899213,129.8814 C483.404576,130.385457 482.038282,131.294384 480.654118,132.091119 C479.198472,132.925251 477.70221,133.726863 476.379781,134.744732 C472.971358,137.369077 469.525569,139.962528 466.334843,142.837276 C464.068518,144.881143 462.590127,148.046943 460.062241,149.500576 C454.826136,152.510281 453.636925,157.898806 450.889717,162.4532 C446.623502,169.534379 447.463423,177.108233 448.082398,184.634933 C448.584401,190.732389 453.170663,192.867312 459.623597,190.966532 C464.901941,189.413713 468.794496,185.740605 473.215049,182.883744 C477.172588,180.326064 481.16262,177.713101 484.671768,174.600959 C486.460459,173.017246 487.370238,170.342495 488.422983,168.044974 C492.169324,159.874382 495.847431,151.672897 499.455681,143.438891 C500.36546,141.36413 501.18751,139.17555 501.56117,136.957702 C502.110286,133.692717 504.9371,129.939936 508.246422,129.052146 C508.958,128.861906 510.137463,129.053772 510.602101,129.543195 C513.895176,133.009802 517.024167,136.630878 520.273378,140.134883 C521.93535,141.92347 523.774404,143.544581 525.476991,145.294144 C528.081234,147.967269 531.023395,150.420886 533.111013,153.458232 C535.39196,156.773622 537.359357,160.500388 538.50308,164.336094 C539.15942,166.529552 536.917464,168.729515 535.03942,170.308349 C529.995019,174.553805 527.138962,180.317934 523.636312,185.717841 C521.719278,188.673888 521.417101,191.947003 519.779498,194.792482 C518.130524,197.655848 516.39382,200.467182 514.665239,203.283394 C514.298079,203.883383 513.916296,204.58581 513.354183,204.935398 C510.412022,206.767887 509.341406,209.463776 508.207432,212.7125 C507.071832,215.957973 503.840491,218.460369 501.574166,221.323735 C500.766737,222.344856 500.11852,223.491177 499.348457,224.543192 C497.361564,227.253714 494.648472,229.390263 493.556737,232.832481 C493.226942,233.876365 491.295286,234.32839 490.289655,235.258455 C486.587178,238.690917 486.120917,240.947789 486.323992,245.389989 C516.187495,245.199748 546.049373,245.007882 575.911251,244.817641 C575.948617,245.334705 575.985983,245.853396 576.024974,246.372086" id="Fill-48" fill="#000000" mask="url(#mask-4)"></path>
                </g>
            </g>
        </g>
    </g>
</svg>