<svg width="166" height="168" viewBox="0 0 166 168" fill="none" xmlns="http://www.w3.org/2000/svg">
<path d="M166 6.88043C165.106 6.83703 164.21 6.81976 163.314 6.82866C157.936 6.88043 163.342 6.78705 160.397 6.88043C153.586 7.0965 143.946 6.72619 136.163 3.58549C113.597 -5.52037 102.533 7.65633 81.981 10.4497C60.5696 13.3598 54.4555 -1.87732 32.8491 0.194368C24.6829 0.977311 20.5548 5.88895 13.7412 8.16288C7.60548 10.2105 3.96867 10.483 0 10.1313V13.0759H166V6.88043Z" fill="#FFC90D"/>
<path d="M166 151.354C165.106 151.397 164.21 151.415 163.314 151.406C157.936 151.354 163.342 151.447 160.397 151.354C153.586 151.138 143.946 151.508 136.163 154.649C113.597 163.755 102.533 150.578 81.981 147.785C60.5696 144.875 54.4555 160.112 32.8491 158.04C24.6829 157.257 20.5548 152.345 13.7412 150.071C7.60548 148.024 3.96867 147.751 0 148.103V145.159H166V151.354Z" fill="#FFC90D"/>
<rect y="12.2217" width="166" height="135.376" fill="#FFC90D"/>
</svg>
